<?xml version="1.0" encoding="UTF-8"?><svg id="Layer_2" xmlns="http://www.w3.org/2000/svg" viewBox="0 0 1951.62 1138.44"><defs><style>.cls-1{stroke-width:1.52px;}.cls-1,.cls-2,.cls-3,.cls-4,.cls-5,.cls-6,.cls-7,.cls-8,.cls-9{fill:none;}.cls-1,.cls-2,.cls-3,.cls-7,.cls-8{stroke:#2c2022;}.cls-1,.cls-7{stroke-miterlimit:10;}.cls-10{fill:#42210b;opacity:.05;}.cls-2,.cls-3,.cls-4,.cls-5,.cls-6,.cls-8,.cls-9{stroke-linecap:round;stroke-linejoin:round;}.cls-2,.cls-7{stroke-width:3.04px;}.cls-11{opacity:.04;}.cls-12{opacity:.07;}.cls-13{opacity:.1;}.cls-14{opacity:.09;}.cls-15{fill:#fab919;}.cls-16{fill:#677376;}.cls-17{fill:#ebe0c9;}.cls-18{fill:#ffe0ba;}.cls-19{fill:#ffe0bb;}.cls-20{fill:#ffdfb9;}.cls-21{fill:#ffddb4;}.cls-22{fill:#ffdcaf;}.cls-23{fill:#ffdcb0;}.cls-24{fill:#ffdcb1;}.cls-25{fill:#ffdfb7;}.cls-26{fill:#ffdfb8;}.cls-27{fill:#ffddb2;}.cls-28{fill:#ffddb3;}.cls-29{fill:#f4f4f4;}.cls-30{fill:#e6e3de;}.cls-31{fill:#ef8a16;}.cls-32{fill:#f05022;}.cls-33{fill:#fff;}.cls-34{fill:#ffdaaa;}.cls-35{fill:#ffdaac;}.cls-36{fill:#ffdaab;}.cls-37{fill:#ffdbae;}.cls-38{fill:#ffdbad;}.cls-39,.cls-40{fill:#ffdac5;}.cls-41{fill:#ffdeb6;}.cls-42{fill:#ffdeb5;}.cls-43{fill:#ffd9a9;}.cls-44{fill:#ffd9aa;}.cls-45{fill:#ffd9a8;}.cls-46{fill:#ffd7a3;}.cls-47{fill:#ffd7a4;}.cls-48{fill:#ffd7a5;}.cls-49{fill:#ffd59f;}.cls-50{fill:#ffd59e;}.cls-51{fill:#ffd8a7;}.cls-52{fill:#ffd8a6;}.cls-53{fill:#ffd49b;}.cls-54{fill:#ffd49c;}.cls-55{fill:#ffd49d;}.cls-56{fill:#ffd6a0;}.cls-57{fill:#ffd6a1;}.cls-58{fill:#ffd6a2;}.cls-59{fill:#ffd39a;}.cls-60{fill:#ffd399;}.cls-61{fill:#ffb469;}.cls-62{fill:#fcb349;}.cls-63{fill:#e5e5e5;}.cls-64{fill:#feaa48;}.cls-65{fill:#7d8a8c;}.cls-66{fill:#6b6b6b;}.cls-67{fill:#72c1bb;}.cls-68{fill:#6b5954;}.cls-69{fill:#6d253b;}.cls-70{fill:#988378;}.cls-71{fill:#9ca050;}.cls-72{fill:#8e786f;}.cls-73{fill:#b3e5e1;}.cls-74{fill:#8ed3d0;}.cls-75{fill:#65aaa3;}.cls-76{fill:#8e7061;}.cls-77{fill:#a58374;}.cls-78{fill:#d8d4d4;}.cls-79{fill:#a58d83;}.cls-80{fill:#a5ad58;}.cls-81{fill:#dec9a6;}.cls-82{fill:#d2bc9a;}.cls-83{fill:#d3c8c5;}.cls-84{fill:#e2dbd7;}.cls-85{fill:#e2d7d3;}.cls-86{fill:#e43840;}.cls-87{fill:#e2431e;}.cls-88{fill:#e2411b;}.cls-89{fill:#232323;}.cls-90{fill:#435759;}.cls-91{fill:#363636;}.cls-92{fill:#93cec7;}.cls-93{fill:#6f2c24;}.cls-94{fill:#6fb2a0;}.cls-95{fill:#6db2a8;}.cls-96{fill:#3a3a3a;}.cls-97{fill:#3d3d3d;}.cls-98{fill:#494949;}.cls-99{fill:#606060;}.cls-100{fill:#772a44;}.cls-101{fill:#77bcb7;}.cls-102{fill:#5e5e5e;}.cls-103{fill:#843029;}.cls-104{fill:#4cbbcc;}.cls-3{stroke-width:2.42px;}.cls-3,.cls-7,.cls-105,.cls-106,.cls-40,.cls-107,.cls-9{fill-rule:evenodd;}.cls-4,.cls-9{stroke:#cc6f00;stroke-width:5.74px;}.cls-5,.cls-6{stroke:#636363;stroke-width:5.27px;}.cls-108{opacity:.14;}.cls-6{stroke-dasharray:0 0 24.21 24.21;}.cls-105{fill:#3a2a28;}.cls-106{fill:#ffebd2;}.cls-107{fill:#ffa42c;}.cls-8{stroke-width:3.47px;}</style></defs><g id="laptop"><g><rect class="cls-73" x="0" width="1951.62" height="1138.44"/><rect class="cls-12" x="205.48" y="709.66" width="554.84" height="103.52"/><g><path class="cls-98" d="M1069.22,687.41h0c1.6-.85,2.22-2.87,1.36-4.47l-2.63-4.93c-.85-1.6-2.87-2.22-4.47-1.36h0c-1.6,.85-2.22,2.87-1.36,4.47l2.63,4.93c.85,1.6,2.87,2.22,4.47,1.36Z"/><ellipse class="cls-76" cx="1041.42" cy="655.66" rx="24.9" ry="27.36" transform="translate(-25.66 42.65) rotate(-2.32)"/><rect class="cls-76" x="1041.42" y="627.99" width="15.08" height="54.72" transform="translate(-25.65 42.97) rotate(-2.32)"/><ellipse class="cls-77" cx="1055.64" cy="655.08" rx="24.9" ry="27.36" transform="translate(-25.63 43.23) rotate(-2.32)"/><path class="cls-85" d="M1074.36,654.32c.46,11.36-7.55,20.91-17.88,21.32-10.34,.42-19.09-8.45-19.55-19.81-.46-11.36,7.55-20.91,17.88-21.32,10.34-.42,19.09,8.45,19.55,19.81Z"/><path class="cls-83" d="M1054.81,634.52c-.69,.03-1.36,.1-2.03,.21,9.43,.73,17.08,9.16,17.51,19.77,.43,10.6-6.52,19.62-15.86,21.12,.67,.05,1.35,.07,2.04,.04,10.34-.42,18.34-9.97,17.88-21.32-.46-11.36-9.21-20.23-19.55-19.81Z"/><path class="cls-98" d="M1059.03,654.95c.08,1.87-1,3.43-2.4,3.49-1.4,.06-2.6-1.41-2.68-3.28s1-3.43,2.4-3.49c1.4-.06,2.6,1.41,2.68,3.28Z"/><rect class="cls-98" x="1055.45" y="640.82" width="1.8" height="14.57" rx=".62" ry=".62" transform="translate(-25.39 43.33) rotate(-2.32)"/><path class="cls-98" d="M1053.36,664.66l1.94-8.51c.12-.52,.64-.85,1.17-.73h0c.52,.12,.85,.64,.73,1.17l-1.94,8.51c-.12,.52-.64,.85-1.17,.73h0c-.52-.12-.85-.64-.73-1.17Z"/><path class="cls-98" d="M1031.1,688.96h0c-1.67-.72-2.44-2.68-1.72-4.34l2.22-5.13c.72-1.67,2.68-2.44,4.34-1.72h0c1.67,.72,2.44,2.68,1.72,4.34l-2.22,5.13c-.72,1.67-2.68,2.44-4.34,1.72Z"/></g><rect class="cls-69" x="875.18" y="643.09" width="29.48" height="46.76"/><rect class="cls-100" x="901.1" y="643.09" width="99.36" height="46.76"/><path class="cls-12" d="M1168.94,685.1h-38.63v-69.12h52.86l-16.62-103.68h8.49v-101.65h-306.97v101.65h213.81l-16.62,103.68h54.89v69.12h-38.63c-3.07,0-5.59,2.01-5.59,5.08s2.52,5.08,5.59,5.08h87.42c3.07,0,5.59-2.01,5.59-5.08s-2.52-5.08-5.59-5.08Z"/><rect class="cls-12" x="873.49" y="113.17" width="301.55" height="114.52"/><rect class="cls-12" x="868.16" y="264.28" width="306.88" height="118.93"/><rect class="cls-92" x="1177.07" width="774.55" height="1138.44"/><g><path class="cls-70" d="M1083.76,194.94l-60.71,.91,1.21,24.69,60.28-2.57c1.64-.02,3.15-.9,3.95-2.33,1.27-2.27,2.95-5.94,3.12-9.66,.18-3.73-1.93-7.06-3.58-9.08-1.05-1.28-2.63-1.99-4.28-1.97Z"/><path class="cls-79" d="M1059.57,196.07l-54.58,3.17,.39,21.3,55.53-1.03s4.96-4.18,5.15-12.21c.19-8.03-6.5-11.23-6.5-11.23Z"/><path class="cls-17" d="M1056.36,199.81l-52.37,2.74s1,6.18,1,8.49c0,3.98-1.01,6.95-1.01,6.95l53.56-3.68c1.7-.03,3.03-1.48,2.92-3.17l-.53-8.16c-.12-1.86-1.71-3.27-3.57-3.18Z"/><path class="cls-64" d="M1147.72,218.53l-75.34-.26,1.04,28.29,74.74,.57c2.04,.02,3.93-1.04,4.96-2.8,1.63-2.79,3.79-7.3,4.1-11.91,.3-4.62-2.24-8.81-4.24-11.35-1.27-1.61-3.21-2.53-5.26-2.54Z"/><path class="cls-61" d="M1072.17,218.13l-67.9,3.1v24.76h69.15s6.25-4.23,6.66-14.19-7.91-13.67-7.91-13.67Z"/><path class="cls-17" d="M1068.21,223.11l-65.03,2.2s.64,3.15,.75,8.51c.08,3.39-1.06,7.32-1.06,7.32h66.47c2.11,0,3.79-1.76,3.7-3.87l-.47-10.14c-.11-2.31-2.05-4.1-4.36-4.02Z"/><path class="cls-88" d="M937.06,150.9l-15.81,96.77,75.72-.74,12.67-102.18-65.88,.45c-3.33,0-6.16,2.41-6.7,5.69Z"/><path class="cls-32" d="M995.76,250.05h21.72l12.37-100.38c-.9,0-20.21-5.01-20.21-5.01l-13.88,105.39Z"/><path class="cls-67" d="M908.1,150.9l-15.81,96.77,75.72-.74,12.67-102.18-65.88,.45c-3.33,0-6.16,2.41-6.7,5.69Z"/><path class="cls-74" d="M966.8,250.05h21.72l12.37-100.38c-.91,0-20.21-5.01-20.21-5.01l-13.88,105.39Z"/><path class="cls-64" d="M880.95,150.9l-15.81,96.77,75.72-.74,12.67-102.18-65.88,.45c-3.33,0-6.16,2.41-6.7,5.69Z"/><path class="cls-61" d="M939.65,250.05h21.72l12.37-100.38c-.91,0-20.21-5.01-20.21-5.01l-13.88,105.39Z"/></g><rect class="cls-84" x="0" y="947.35" width="1951.62" height="191.1"/><rect class="cls-29" x="1175.04" y="95.55" width="117.91" height="880.26"/><polygon class="cls-12" points="1268.55 119.94 1292.95 95.55 1175.04 95.55 1175.04 227.69 1268.55 119.94"/><polygon class="cls-12" points="1175.04 264.28 1175.04 383.21 1268.55 270.38 1292.95 264.28 1175.04 264.28"/><polygon class="cls-12" points="1175.04 408.62 1175.04 511.28 1268.55 420.82 1292.95 408.62 1175.04 408.62"/><rect class="cls-33" x="760.32" y="95.55" width="532.63" height="24.4"/><g><rect class="cls-32" x="1043.38" y="344.92" width="145.35" height="12.88" rx="4.91" ry="4.91"/><rect class="cls-64" x="1043.38" y="357.8" width="145.35" height="12.88" rx="3.39" ry="3.39"/><rect class="cls-70" x="1043.38" y="370.67" width="145.35" height="12.88" rx="3.39" ry="3.39"/><rect class="cls-74" x="1043.38" y="383.55" width="145.35" height="12.88" rx="3.39" ry="3.39"/></g><rect class="cls-33" x="760.32" y="245.99" width="532.63" height="24.4"/><g><rect class="cls-72" x="869.08" y="284.61" width="94.87" height="116.89"/><rect class="cls-70" x="951.41" y="284.61" width="94.87" height="116.89"/><polygon class="cls-14" points="963.95 284.61 951.41 284.61 869.08 284.61 869.42 383.38 951.41 319.14 1045.95 316.97 1046.96 284.61 963.95 284.61"/><rect class="cls-72" x="863.32" y="280.88" width="101.04" height="25.41"/><rect class="cls-70" x="948.7" y="280.88" width="103.34" height="25.41"/><path class="cls-68" d="M1018.12,330.1h-28.21c-2.73,0-4.96-2.23-4.96-4.96h0c0-2.73,2.23-4.96,4.96-4.96h28.21c2.73,0,4.96,2.23,4.96,4.96h0c0,2.73-2.23,4.96-4.96,4.96Z"/></g><rect class="cls-33" x="760.32" y="396.42" width="532.63" height="24.4"/><path class="cls-11" d="M1066.14,660.17c-.6-14.78-11.05-26.36-25.28-26.32v-.05l-14.92,.61c-13.74,.56-24.31,13.25-23.7,28.34,.43,10.65,6.39,19.63,14.66,23.81l-1.77,4.14c-.72,1.67,.06,3.62,1.73,4.34,1.67,.72,3.63-.05,4.35-1.72l2-4.61c1.65,.31,3.12,.44,4.86,.37l14.83-.61v-.05c2.03-.13,3.44-.41,4.95-.86l2.56,4.58c.85,1.6,2.92,2.22,4.53,1.36,1.6-.85,2.25-2.87,1.39-4.47l-2.31-4.22c7.64-4.92,12.55-14.2,12.13-24.65Z"/><path class="cls-11" d="M782.76,557.55s-8.69,10.41-14.94,30.51c-.23-2.2-.48-4.23-.75-6.24,.12-3.35,.18-6.75,.16-10.31,0,0-.56,.54-1.47,1.68-.9-5.3-1.64-8.64-1.64-8.64-1.55,2.36-2.9,4.99-4.11,7.8,.55-7.72,1-15.18,1.18-20.74,0,0-5.44,14.56-10.44,33.3-.07-15.94-1.64-27.09-1.64-27.09-4.99,7.72-7.77,18.55-9.24,29.91-1.53-27.72-7.85-51.01-7.85-51.01-3.3,12.77-4.68,27.46-4.99,41.89-4.55-9.81-8.21-16.64-8.21-16.64-.62,4.7-.56,9.8-.03,15.06-3.3-7.47-5.92-11.96-5.92-11.96-.71,25.94,4.6,50.91,8.05,63.11h-3.71l3.11,67.09h46.33l.57-12.33h0l2.53-54.75h-1.31c5.95-14.23,16.56-47.66,14.31-70.63Z"/><g><path class="cls-70" d="M1149.63,687.64h0c-2.52,0-4.57-2.06-4.57-4.57v-175.34c0-2.52,2.06-4.57,4.57-4.57h0c2.52,0,4.57,2.06,4.57,4.57v175.34c0,2.52-2.06,4.57-4.57,4.57Z"/><path class="cls-108" d="M1154.2,652.63v-144.9c0-2.52-2.06-4.57-4.57-4.57s-4.57,2.06-4.57,4.57v152.51c3.05-2.54,6.1-5.07,9.15-7.61Z"/><path class="cls-70" d="M1193.33,687.64h-87.42c-3.07,0-5.59-2.52-5.59-5.59h0c0-3.07,2.52-5.59,5.59-5.59h87.42c3.07,0,5.59,2.52,5.59,5.59h0c0,3.07-2.52,5.59-5.59,5.59Z"/><polygon class="cls-60" points="1187.24 479.77 1148.61 479.77 1109.98 479.77 1089.65 607.85 1148.61 607.85 1207.56 607.85 1187.24 479.77"/><g><polygon class="cls-60" points="1187.24 479.77 1148.61 479.77 1109.98 479.77 1089.65 607.85 1148.61 607.85 1207.56 607.85 1187.24 479.77"/><polygon class="cls-59" points="1186.79 479.77 1148.78 479.77 1110.78 479.77 1090.77 607.85 1148.78 607.85 1206.8 607.85 1186.79 479.77"/><polygon class="cls-53" points="1186.35 479.77 1148.96 479.77 1111.57 479.77 1091.89 607.85 1148.96 607.85 1206.03 607.85 1186.35 479.77"/><polygon class="cls-54" points="1185.91 479.77 1149.13 479.77 1112.36 479.77 1093 607.85 1149.13 607.85 1205.26 607.85 1185.91 479.77"/><polygon class="cls-55" points="1185.46 479.77 1149.31 479.77 1113.15 479.77 1094.12 607.85 1149.31 607.85 1204.49 607.85 1185.46 479.77"/><polygon class="cls-50" points="1185.02 479.77 1149.48 479.77 1113.94 479.77 1095.24 607.85 1149.48 607.85 1203.73 607.85 1185.02 479.77"/><polygon class="cls-49" points="1184.58 479.77 1149.65 479.77 1114.73 479.77 1096.35 607.85 1149.65 607.85 1202.96 607.85 1184.58 479.77"/><polygon class="cls-56" points="1184.13 479.77 1149.83 479.77 1115.52 479.77 1097.47 607.85 1149.83 607.85 1202.19 607.85 1184.13 479.77"/><polygon class="cls-57" points="1183.69 479.77 1150 479.77 1116.32 479.77 1098.58 607.85 1150 607.85 1201.42 607.85 1183.69 479.77"/><polygon class="cls-58" points="1183.25 479.77 1150.18 479.77 1117.11 479.77 1099.7 607.85 1150.18 607.85 1200.65 607.85 1183.25 479.77"/><polygon class="cls-46" points="1182.81 479.77 1150.35 479.77 1117.9 479.77 1100.82 607.85 1150.35 607.85 1199.89 607.85 1182.81 479.77"/><polygon class="cls-47" points="1182.36 479.77 1150.53 479.77 1118.69 479.77 1101.93 607.85 1150.53 607.85 1199.12 607.85 1182.36 479.77"/><polygon class="cls-48" points="1181.92 479.77 1150.7 479.77 1119.48 479.77 1103.05 607.85 1150.7 607.85 1198.35 607.85 1181.92 479.77"/><polygon class="cls-52" points="1181.48 479.77 1150.87 479.77 1120.27 479.77 1104.17 607.85 1150.87 607.85 1197.58 607.85 1181.48 479.77"/><polygon class="cls-51" points="1181.03 479.77 1151.05 479.77 1121.06 479.77 1105.28 607.85 1151.05 607.85 1196.82 607.85 1181.03 479.77"/><polygon class="cls-45" points="1180.59 479.77 1151.22 479.77 1121.86 479.77 1106.4 607.85 1151.22 607.85 1196.05 607.85 1180.59 479.77"/><polygon class="cls-43" points="1180.15 479.77 1151.4 479.77 1122.65 479.77 1107.52 607.85 1151.4 607.85 1195.28 607.85 1180.15 479.77"/><polygon class="cls-44" points="1179.7 479.77 1151.57 479.77 1123.44 479.77 1108.63 607.85 1151.57 607.85 1194.51 607.85 1179.7 479.77"/><polygon class="cls-34" points="1179.26 479.77 1151.75 479.77 1124.23 479.77 1109.75 607.85 1151.75 607.85 1193.74 607.85 1179.26 479.77"/><polygon class="cls-36" points="1178.82 479.77 1151.92 479.77 1125.02 479.77 1110.86 607.85 1151.92 607.85 1192.98 607.85 1178.82 479.77"/><polygon class="cls-35" points="1178.38 479.77 1152.09 479.77 1125.81 479.77 1111.98 607.85 1152.09 607.85 1192.21 607.85 1178.38 479.77"/><polygon class="cls-38" points="1177.93 479.77 1152.27 479.77 1126.6 479.77 1113.1 607.85 1152.27 607.85 1191.44 607.85 1177.93 479.77"/><polygon class="cls-37" points="1177.49 479.77 1152.44 479.77 1127.4 479.77 1114.21 607.85 1152.44 607.85 1190.67 607.85 1177.49 479.77"/><polygon class="cls-22" points="1177.05 479.77 1152.62 479.77 1128.19 479.77 1115.33 607.85 1152.62 607.85 1189.9 607.85 1177.05 479.77"/><polygon class="cls-23" points="1176.6 479.77 1152.79 479.77 1128.98 479.77 1116.45 607.85 1152.79 607.85 1189.14 607.85 1176.6 479.77"/><polygon class="cls-24" points="1176.16 479.77 1152.97 479.77 1129.77 479.77 1117.56 607.85 1152.97 607.85 1188.37 607.85 1176.16 479.77"/><polygon class="cls-27" points="1175.72 479.77 1153.14 479.77 1130.56 479.77 1118.68 607.85 1153.14 607.85 1187.6 607.85 1175.72 479.77"/><polygon class="cls-28" points="1175.28 479.77 1153.31 479.77 1131.35 479.77 1119.79 607.85 1153.31 607.85 1186.83 607.85 1175.28 479.77"/><polygon class="cls-21" points="1174.83 479.77 1153.49 479.77 1132.14 479.77 1120.91 607.85 1153.49 607.85 1186.07 607.85 1174.83 479.77"/><polygon class="cls-42" points="1174.39 479.77 1153.66 479.77 1132.94 479.77 1122.03 607.85 1153.66 607.85 1185.3 607.85 1174.39 479.77"/><polygon class="cls-41" points="1173.95 479.77 1153.84 479.77 1133.73 479.77 1123.14 607.85 1153.84 607.85 1184.53 607.85 1173.95 479.77"/><polygon class="cls-25" points="1173.5 479.77 1154.01 479.77 1134.52 479.77 1124.26 607.85 1154.01 607.85 1183.76 607.85 1173.5 479.77"/><polygon class="cls-26" points="1173.06 479.77 1154.19 479.77 1135.31 479.77 1125.38 607.85 1154.19 607.85 1182.99 607.85 1173.06 479.77"/><polygon class="cls-20" points="1172.62 479.77 1154.36 479.77 1136.1 479.77 1126.49 607.85 1154.36 607.85 1182.23 607.85 1172.62 479.77"/><polygon class="cls-18" points="1172.17 479.77 1154.53 479.77 1136.89 479.77 1127.61 607.85 1154.53 607.85 1181.46 607.85 1172.17 479.77"/><polygon class="cls-19" points="1171.73 479.77 1154.71 479.77 1137.69 479.77 1128.73 607.85 1154.71 607.85 1180.69 607.85 1171.73 479.77"/></g></g><rect class="cls-33" x="760.32" y="687.13" width="532.63" height="136.21"/><rect class="cls-29" x="760.32" y="95.55" width="117.91" height="880.26"/><polygon class="cls-12" points="853.16 420.82 760.32 515.03 760.32 95.55 878.23 95.55 853.16 420.82"/><path class="cls-12" d="M1215.8,776.58c23.76-12.2,37.84-20.8,37.84-20.8,0,0-84.9-57-189.64-57s-182.22,55.58-182.22,55.58c0,0,12.61,11.49,30.42,22.21l-24.32,10.84-25.41,35.92h430.47v-46.76h-77.14Z"/><rect class="cls-33" x="853.16" y="95.55" width="25.07" height="880.26"/><rect class="cls-33" x="1268.55" y="95.55" width="24.4" height="880.26"/><path class="cls-62" d="M1314.63,753.56s-84.9,56.9-189.64,56.9-189.64-56.9-189.64-56.9c0,0,84.9-56.9,189.64-56.9s189.64,56.9,189.64,56.9Z"/><rect class="cls-64" x="868.16" y="774.18" width="868.37" height="123.09" rx="24.4" ry="24.4"/><path class="cls-10" d="M868.94,792.56c-.5,1.93-.79,3.94-.79,6.02v74.3c0,13.42,10.98,24.4,24.4,24.4h819.58c13.42,0,24.4-10.98,24.4-24.4v-74.3c0-2.08-.29-4.09-.79-6.02H868.94Z"/><rect class="cls-29" x="760.32" y="813.17" width="532.63" height="162.63"/><rect class="cls-63" x="768.96" y="858.58" width="523.99" height="117.23"/><path class="cls-101" d="M873.73,858.58v5.59c0,3.65-3.45,6.61-7.7,6.61h-34.17c-3.93,0-7.11-2.73-7.11-6.1v-6.1h-58.32v117.23h168.94v-117.23h-61.63Z"/><path class="cls-74" d="M1051.33,858.58v5.59c0,3.65-3.52,6.61-7.85,6.61h-34.83c-4,0-7.25-2.73-7.25-6.1v-6.1h-59.45v117.23h172.2v-117.23h-62.82Z"/><g><path class="cls-71" d="M765.19,630.93s-2.1-49.18,13.17-72.47c0,0,8.03,35.98,3.11,59.79-4.92,23.81-16.28,12.68-16.28,12.68Z"/><path class="cls-71" d="M751.78,630.67s-22.6-45.29-18.72-74.8c0,0,23.99,44.62,25.32,69.81,1.33,25.18-6.6,4.99-6.6,4.99Z"/><path class="cls-80" d="M737.98,632.24s-11.91-34.94-10.87-72.99c0,0,18.89,30.3,19.15,72.99h-8.28Z"/><path class="cls-80" d="M746.26,641.8s-11.39-67.06,0-111.18c0,0,12.68,46.73,6.47,86.59-6.21,39.86-6.47,24.59-6.47,24.59Z"/><path class="cls-71" d="M754.45,637.14s-7.67-59.79,8.9-85.41c0,0,6.15,43.48-5.34,81.53-11.49,38.05-3.56,3.88-3.56,3.88Z"/><path class="cls-80" d="M778.87,632.23s21.22-48.92,18.12-80.49c0,0-18.64,22-20.96,64.71-2.33,42.71,2.85,15.79,2.85,15.79Z"/><path class="cls-80" d="M771.24,635.33s10.48-27.95,10.22-69.88c0,0-12.16,11.39-15.01,42.96-2.85,31.58,0,41.67,0,41.67l4.79-14.75Z"/><path class="cls-80" d="M771.24,603.24s3.58-39.34,4.19-57.72c0,0-23.32,62.29-17.7,95.08,5.62,32.78-.87-1.38-.87-1.38,0,0,11.41-15.53,14.39-35.98Z"/><polygon class="cls-30" points="780.89 689.87 734.56 689.87 731.46 622.65 784 622.65 780.89 689.87"/><path class="cls-11" d="M759.46,674.28c-16.46-10.19-23.9-32.53-25.59-51.63h-2.41l3.11,67.22h46.33l.57-12.4c-6.62,2.23-13.89,1.84-22.01-3.19Z"/></g><polygon class="cls-12" points="760.32 704.41 760.32 813.17 853.16 713.56 853.16 700.35 760.32 704.41"/><path class="cls-101" d="M1230.13,858.58v5.59c0,3.65-3.52,6.61-7.85,6.61h-34.83c-4,0-7.25-2.73-7.25-6.1v-6.1h-59.45v117.23h172.2v-117.23h-62.82Z"/><rect class="cls-29" x="1292.95" y="687.13" width="505.4" height="288.68"/><rect class="cls-33" x="117.23" y="701.23" width="135.53" height="274.58"/><rect class="cls-29" x="96.9" y="701.23" width="135.53" height="274.58"/><polygon class="cls-12" points="252.76 736.94 252.76 701.23 96.9 701.23 96.9 819.27 232.43 736.94 252.76 736.94"/><rect class="cls-33" x="1314.63" y="687.13" width="483.71" height="288.68"/><rect class="cls-95" x="1448.47" y="820.29" width="349.88" height="155.52"/><rect class="cls-33" x="87.42" y="687.13" width="765.74" height="26.43"/><rect class="cls-29" x="87.42" y="687.13" width="136.21" height="26.43"/><rect class="cls-101" x="1729.35" y="800.98" width="117.91" height="174.16"/><rect class="cls-75" x="1703.6" y="800.98" width="117.91" height="174.16"/><polygon class="cls-12" points="1703.6 800.98 1703.6 815.21 1447.45 815.21 1447.45 943.28 1704.47 943.28 1821.51 825.37 1821.51 800.98 1703.6 800.98"/><g><ellipse class="cls-93" cx="1674.12" cy="915.84" rx="55.23" ry="40.86"/><path class="cls-13" d="M1676.38,937.74c-15.19-2.75-27.88-9.71-34.9-23.93-4.64-9.4-4.33-21.13-.02-30.89-13.68,7.43-22.57,19.41-22.57,32.93,0,22.56,24.73,40.86,55.23,40.86,21.48,0,40.08-9.08,49.21-22.32-14.32,6.29-31.77,6.11-46.96,3.36Z"/><path class="cls-103" d="M1726.1,929.66c-3.49,3.73-13.17,10.46-37.16,9.17-28.71-1.54-45.45-15.18-49.69-19.1,5.92-6.32,35.89-36.5,67.51-35.19l.07-1.63c-1.08-.59-2.2-1.15-3.34-1.68-32.02,.71-60.64,29.75-66.65,36.25-3.51-3.29-13.48-13.78-9.57-23.27-1.59,1.88-2.98,3.86-4.14,5.93,.84,10.61,11.56,19.89,12.71,20.86,1.39,1.47,18.84,19.29,52.93,21.12,2.12,.11,4.13,.17,6.04,.17,12.59,0,20.9-2.31,26.35-5.03,1.99-2.38,3.65-4.92,4.95-7.59Z"/><path class="cls-78" d="M1673.71,911.27c-4.07-16.38-18.33-27.45-33.78-27.5-9.3,5.44-16.19,13.03-19.26,21.77,3.17-5.3,8.08-9.01,13.89-10.45,1.76-.44,3.53-.65,5.28-.65,10.69,0,20.64,7.84,23.51,19.41,1.61,6.5,.78,13.18-2.34,18.84,3.31,1.6,6.85,2.44,10.45,2.97,3.5-7.52,4.32-16.08,2.25-24.38Z"/><path class="cls-78" d="M1671.15,891.85l2.46,2.45c.72,.72,1.82,.88,2.72,.41,5.72-3.01,26.26-13.23,34.83-9.17,0,0-5.28-4.46-10.51-5.53,0,0-16.04,.63-29.26,9.41-.83,.55-.96,1.73-.25,2.44Z"/><path class="cls-78" d="M1673.85,885.32c-3.63,1.08,6.64,10.68,10.13,9.03,3.49-1.64-8.07-9.65-10.13-9.03Z"/><path class="cls-78" d="M1680.08,881.96c-3.56,1.47,8.78,9.99,12.39,8.9,3.07-.93-9.18-10.22-12.39-8.9Z"/><path class="cls-78" d="M1689.42,879.09c-3.04,.72,6.95,9.44,11.67,8.67,4.55-.75-9.17-9.26-11.67-8.67Z"/><path class="cls-78" d="M1727.72,925.69c1.06-3.16,1.63-6.45,1.63-9.85,0-10.42-5.29-19.93-13.97-27.15,5.19,6.59,14.85,21.78,12.35,37Z"/></g><rect class="cls-101" x="1314.63" y="800.98" width="532.63" height="24.4"/><g><rect class="cls-87" x="1401.71" y="874.16" width="94.87" height="76.24"/><rect class="cls-32" x="1484.04" y="874.16" width="125.36" height="76.24"/><polygon class="cls-14" points="1496.58 874.16 1484.04 874.16 1401.71 874.16 1402.05 932.27 1484.04 908.69 1609.07 906.52 1610.09 874.16 1496.58 874.16"/><rect class="cls-87" x="1395.95" y="870.44" width="101.04" height="25.41"/><rect class="cls-32" x="1481.33" y="870.44" width="133.83" height="25.41"/></g><rect class="cls-101" x="1314.63" y="951.41" width="532.63" height="24.4"/><rect class="cls-101" x="1340.38" y="800.98" width="117.91" height="174.16"/><rect class="cls-75" x="1314.63" y="800.98" width="117.91" height="174.16"/><g><path class="cls-66" d="M1752.88,911.14c-.83-1.45-1.65-.82-3.1,0l-22.54,11.15c-8.76,5-18.68,7.62-28.77,7.62h-92.71l-36.61-20.38s-17.23-4.93-30.31-4.93c-15.59,0-24.82,5.62-25.31,6.54-.78,1.47-.22,3.3,1.26,4.08l28.58,15.1c6.99,3.69,14.78,5.62,22.68,5.62h132.41c11.14,0,22.08-2.9,31.76-8.42l21.53-12.27c1.45-.83,1.95-2.67,1.13-4.12Z"/><path class="cls-82" d="M1514.79,915.22l1.03,.55c3.68-1.97,11.65-4.96,23.02-4.96,13.07,0,30.31,4.93,30.31,4.93l48.3,20.21,82.08-.82c4.73,0,8.36,.29,12.94-.73,5.15-1.28,10.12-3.25,14.77-5.9l21.53-12.27c.61-.35,1.28-.45,1.92-.35l1.06-.61c1.45-.83,4.89-1.91,4.06-3.36-.66-1.15-2.86-1.07-4.46-.57-.41,.13-.78,.28-1.07,.45l-23.04,10.52c-8.76,5-18.68,7.62-28.77,7.62h-92.71l-36.61-20.38s-17.23-4.93-30.31-4.93c-15.59,0-24.82,5.62-25.31,6.54-.78,1.47-.22,3.3,1.26,4.08Z"/><path class="cls-66" d="M1785.42,904.6c-18.89-1.08-25.12,1.73-33.5,5.36l-24.68,12.32c-8.76,5-18.68,7.62-28.77,7.62h-82.36v6.03h82.36c1.07,0,2.13-.04,3.2-.09,.28-.01,.56-.03,.85-.05,.86-.05,1.72-.13,2.58-.22,.22-.02,.43-.04,.65-.07,2.18-.25,4.34-.61,6.47-1.08,.09-.02,.17-.03,.26-.05,.07-.02,.13-.04,.2-.05,2.08-.47,4.14-1.04,6.17-1.72,15.69-.22,44.49-.62,44.77-.62,.38,0,40.16-22.33,40.16-22.33,0,0-3.79-4.25-18.35-5.08Z"/><path class="cls-66" d="M1785.42,904.6c-18.89-1.08-25.12,1.73-33.5,5.36l-24.68,12.32c-8.76,5-18.68,7.62-28.77,7.62h-82.36v6.03h82.36c1.07,0,2.13-.04,3.2-.09,.28-.01,.56-.03,.85-.05,.86-.05,1.72-.13,2.58-.22,.22-.02,.43-.04,.65-.07,2.18-.25,4.34-.61,6.47-1.08,.09-.02,.17-.03,.26-.05,.07-.02,.13-.04,.2-.05,2.08-.47,4.14-1.04,6.17-1.72,15.69-.22,44.49-.62,44.77-.62,.38,0,40.16-22.33,40.16-22.33,0,0-3.79-4.25-18.35-5.08Z"/><path class="cls-66" d="M1785.42,904.6c-18.89-1.08-25.12,1.73-33.5,5.36l-24.68,12.32c-8.76,5-18.68,7.62-28.77,7.62h-82.36v6.03h82.36c1.07,0,2.13-.04,3.2-.09,.28-.01,.56-.03,.85-.05,.86-.05,1.72-.13,2.58-.22,.22-.02,.43-.04,.65-.07,2.18-.25,4.34-.61,6.47-1.08,.09-.02,.17-.03,.26-.05,.07-.02,.13-.04,.2-.05,2.08-.47,4.14-1.04,6.17-1.72,15.69-.22,44.49-.62,44.77-.62,.38,0,40.16-22.33,40.16-22.33,0,0-3.79-4.25-18.35-5.08Z"/><path class="cls-66" d="M1785.42,904.6c-18.89-1.08-25.12,1.73-33.5,5.36l-24.68,12.32c-8.76,5-18.68,7.62-28.77,7.62h-23.79c11.3,1.35,22.91,2.6,33.88,5.22,1.22-.2,2.44-.42,3.66-.68,.09-.02,.17-.03,.26-.05,.07-.02,.13-.04,.2-.05,2.08-.47,4.14-1.04,6.17-1.72,15.69-.22,44.49-.62,44.77-.62,.38,0,40.16-22.33,40.16-22.33,0,0-3.79-4.25-18.35-5.08Z"/><path class="cls-89" d="M1573.29,963.27c0,7.02-4.38,12.71-9.78,12.71s-9.78-5.69-9.78-12.71,4.38-12.71,9.78-12.71,9.78,5.69,9.78,12.71Z"/><rect class="cls-89" x="1563.51" y="950.55" width="13.2" height="25.43"/><path class="cls-97" d="M1586.5,963.27c0,7.02-4.38,12.71-9.78,12.71s-9.78-5.69-9.78-12.71,4.38-12.71,9.78-12.71,9.78,5.69,9.78,12.71Z"/><path class="cls-89" d="M1582.5,963.27c0,4.15-2.59,7.52-5.78,7.52s-5.78-3.37-5.78-7.52,2.59-7.52,5.78-7.52,5.78,3.37,5.78,7.52Z"/><rect class="cls-16" x="1574.15" y="960.34" width="47.5" height="5.87" rx="2.09" ry="2.09"/><path class="cls-66" d="M1690,929.91h-84.24l-36.61-20.38s-17.23-4.93-30.31-4.93c-15.59,0-24.82,5.62-25.31,6.54-.78,1.47-.22,3.3,1.26,4.08l28.58,15.1c6.99,3.69,14.78,5.62,22.68,5.62h123.94v-6.03Z"/><path class="cls-65" d="M1622.12,960.47c-1.73-1.69-4.17-4.16-6.19-6.22-2.31-2.36-3.6-5.52-3.6-8.82v-4.86c0-1.94-1.59-3.52-3.52-3.52h-5.21c-1.94,0-3.52,1.59-3.52,3.52v6.15c0,2.86-1.08,5.61-3.03,7.7l-5.63,6.04h30.7Z"/><path class="cls-16" d="M1615.63,962.43c-.29,0-4.94-4.7-8.36-8.18-2.31-2.36-3.6-5.52-3.6-8.82v-4.86c0-1.94-1.59-3.52-3.52-3.52h-5.21c-1.94,0-3.52,1.59-3.52,3.52v6.15c0,2.86-1.08,5.61-3.03,7.7l-7.07,7.58c-.15,.16-.04,.42,.18,.42h9.67c.14,0,.25,.11,.25,.25h0c0,1.94,1.59,3.52,3.52,3.52h5.21c1.94,0,3.52-1.59,3.52-3.52h0c0-.14,.11-.25,.25-.25,6.54,0,11.88,0,11.7,0Z"/><path class="cls-82" d="M1697.51,929.91h-91.76l-36.61-20.38s-17.23-4.93-30.31-4.93c-15.59,0-24.82,5.62-25.31,6.54-.78,1.47-.22,3.3,1.26,4.08l1.03,.55c3.68-1.97,11.65-4.96,23.02-4.96,13.07,0,30.31,4.93,30.31,4.93l48.3,20.21h80.06v-6.03Z"/><path class="cls-89" d="M1627.47,963.27c0,7.02-4.38,12.71-9.78,12.71s-9.78-5.69-9.78-12.71,4.38-12.71,9.78-12.71,9.78,5.69,9.78,12.71Z"/><path class="cls-66" d="M1693.85,929.91h-88.09l-36.61-20.38s-17.23-4.93-30.31-4.93c-15.59,0-24.82,5.62-25.31,6.54-.78,1.47-.22,3.3,1.26,4.08l28.58,15.1c6.99,3.69,14.78,5.62,22.68,5.62h127.79v-6.03Z"/><path class="cls-82" d="M1698.43,929.91h-92.67l-36.61-20.38s-17.23-4.93-30.31-4.93c-15.59,0-24.82,5.62-25.31,6.54-.78,1.47-.22,3.3,1.26,4.08l1.03,.55c3.68-1.97,11.65-4.96,23.02-4.96,13.07,0,30.31,4.93,30.31,4.93l48.3,20.21h80.98v-6.03Z"/><path class="cls-66" d="M1695.68,929.91h-89.92l-36.61-20.38s-17.23-4.93-30.31-4.93c-15.59,0-24.82,5.62-25.31,6.54-.78,1.47-.22,3.3,1.26,4.08l28.58,15.1c6.99,3.69,14.78,5.62,22.68,5.62h129.62v-6.03Z"/><path class="cls-82" d="M1699.53,929.88c-.35,0-.71,.03-1.06,.03h-92.71l-36.61-20.38s-17.23-4.93-30.31-4.93c-15.59,0-24.82,5.62-25.31,6.54-.78,1.47-.22,3.3,1.26,4.08l1.03,.55c3.68-1.97,11.65-4.96,23.02-4.96,13.07,0,30.31,4.93,30.31,4.93l48.3,20.21h81.02c.35,0,.71-.02,1.06-.03v-6.04Z"/><path class="cls-66" d="M1667.01,929.91h-61.25l-36.61-20.38s-17.23-4.93-30.31-4.93c-15.59,0-24.82,5.62-25.31,6.54-.78,1.47-.22,3.3,1.26,4.08l28.58,15.1c6.99,3.69,14.78,5.62,22.68,5.62h100.95v-6.03Z"/><path class="cls-82" d="M1667.01,929.91h-61.25l-36.61-20.38s-17.23-4.93-30.31-4.93c-15.59,0-24.82,5.62-25.31,6.54-.78,1.47-.22,3.3,1.26,4.08l1.03,.55c3.68-1.97,11.65-4.96,23.02-4.96,13.07,0,30.31,4.93,30.31,4.93l48.3,20.21h49.56v-6.03Z"/><rect class="cls-66" x="1616.11" y="929.91" width="50.9" height="6.03"/><path class="cls-90" d="M1605.76,929.91l-36.61-20.38s-17.24-4.93-30.31-4.93c-8.67,0-15.36,1.74-19.69,3.44-.34,2.86-1.51,5.58-3.52,7.62l27.74,14.66c6.99,3.69,14.78,5.62,22.68,5.62h100.95v-6.03h-61.25Z"/><path class="cls-82" d="M1667.01,929.91h-61.25l-35.18-20.03s-19.04-6.43-32.11-6.43c-15.59,0-24.45,6.77-24.93,7.68-.78,1.47-.22,3.3,1.26,4.08l1.03,.55c3.68-1.97,11.65-4.96,23.02-4.96,13.07,0,30.31,4.93,30.31,4.93l48.3,20.21h49.56v-6.03Z"/><rect class="cls-66" x="1616.11" y="929.91" width="50.9" height="6.03"/><rect class="cls-89" x="1617.69" y="950.55" width="13.2" height="25.43"/><path class="cls-97" d="M1640.68,963.27c0,7.02-4.38,12.71-9.78,12.71s-9.78-5.69-9.78-12.71,4.38-12.71,9.78-12.71,9.78,5.69,9.78,12.71Z"/><path class="cls-89" d="M1636.68,963.27c0,4.15-2.59,7.52-5.78,7.52s-5.78-3.37-5.78-7.52,2.59-7.52,5.78-7.52,5.78,3.37,5.78,7.52Z"/><g><path class="cls-97" d="M1630.9,963.27c0,1.62-1.01,2.93-2.26,2.93s-2.26-1.31-2.26-2.93,1.01-2.93,2.26-2.93,2.26,1.31,2.26,2.93Z"/><rect class="cls-97" x="1628.64" y="960.34" width="3.05" height="5.87"/><path class="cls-99" d="M1633.95,963.27c0,1.62-1.01,2.93-2.26,2.93s-2.26-1.31-2.26-2.93,1.01-2.93,2.26-2.93,2.26,1.31,2.26,2.93Z"/></g><rect class="cls-65" x="1609.28" y="940.2" width="5.04" height="2.11" rx=".75" ry=".75"/><rect class="cls-65" x="1584.61" y="935.95" width="41.08" height="4.81" rx="1.71" ry="1.71"/><rect class="cls-16" x="1578.81" y="935.95" width="36.25" height="4.81" rx="1.71" ry="1.71"/><rect class="cls-16" x="1582.05" y="940.2" width="5.04" height="2.11" rx=".75" ry=".75"/><rect class="cls-16" x="1589.7" y="940.2" width="5.04" height="2.11" rx=".75" ry=".75"/><rect class="cls-65" x="1616.94" y="940.2" width="5.04" height="2.11" rx=".75" ry=".75"/><path class="cls-89" d="M1704.94,963.27c0,7.02-4.38,12.71-9.78,12.71s-9.78-5.69-9.78-12.71,4.38-12.71,9.78-12.71,9.78,5.69,9.78,12.71Z"/><rect class="cls-89" x="1695.16" y="950.55" width="13.2" height="25.43"/><path class="cls-97" d="M1718.15,963.27c0,7.02-4.38,12.71-9.78,12.71s-9.78-5.69-9.78-12.71,4.38-12.71,9.78-12.71,9.78,5.69,9.78,12.71Z"/><ellipse class="cls-89" cx="1708.37" cy="963.27" rx="5.78" ry="7.52"/><rect class="cls-16" x="1705.8" y="960.34" width="47.5" height="5.87" rx="2.09" ry="2.09"/><path class="cls-65" d="M1753.77,960.47c-1.73-1.69-4.17-4.16-6.19-6.22-2.31-2.36-3.6-5.52-3.6-8.82v-4.86c0-1.94-1.59-3.52-3.52-3.52h-5.21c-1.94,0-3.52,1.59-3.52,3.52v6.15c0,2.86-1.08,5.61-3.03,7.7l-5.63,6.04h30.7Z"/><path class="cls-16" d="M1747.28,962.43c-.29,0-4.94-4.7-8.36-8.18-2.31-2.36-3.6-5.52-3.6-8.82v-4.86c0-1.94-1.59-3.52-3.52-3.52h-5.21c-1.94,0-3.52,1.59-3.52,3.52v6.15c0,2.86-1.08,5.61-3.03,7.7l-7.07,7.58c-.15,.16-.04,.42,.18,.42h9.67c.14,0,.25,.11,.25,.25h0c0,1.94,1.59,3.52,3.52,3.52h5.21c1.94,0,3.52-1.59,3.52-3.52h0c0-.14,.11-.25,.25-.25,6.54,0,11.88,0,11.7,0Z"/><path class="cls-89" d="M1759.12,963.27c0,7.02-4.38,12.71-9.78,12.71s-9.78-5.69-9.78-12.71,4.38-12.71,9.78-12.71,9.78,5.69,9.78,12.71Z"/><rect class="cls-89" x="1749.34" y="950.55" width="13.2" height="25.43"/><path class="cls-97" d="M1772.32,963.27c0,7.02-4.38,12.71-9.78,12.71s-9.78-5.69-9.78-12.71,4.38-12.71,9.78-12.71,9.78,5.69,9.78,12.71Z"/><path class="cls-89" d="M1768.33,963.27c0,4.15-2.59,7.52-5.78,7.52s-5.78-3.37-5.78-7.52,2.59-7.52,5.78-7.52,5.78,3.37,5.78,7.52Z"/><g><ellipse class="cls-97" cx="1760.29" cy="963.27" rx="2.26" ry="2.93"/><rect class="cls-97" x="1760.29" y="960.34" width="3.05" height="5.87"/><ellipse class="cls-99" cx="1763.34" cy="963.27" rx="2.26" ry="2.93"/></g><rect class="cls-65" x="1740.93" y="940.2" width="5.04" height="2.11" rx=".75" ry=".75"/><rect class="cls-65" x="1716.26" y="935.95" width="41.08" height="4.81" rx="1.71" ry="1.71"/><rect class="cls-16" x="1710.46" y="935.95" width="36.25" height="4.81" rx="1.71" ry="1.71"/><rect class="cls-16" x="1713.7" y="940.2" width="5.04" height="2.11" rx=".75" ry=".75"/><rect class="cls-16" x="1721.35" y="940.2" width="5.04" height="2.11" rx=".75" ry=".75"/><rect class="cls-65" x="1748.59" y="940.2" width="5.04" height="2.11" rx=".75" ry=".75"/><path class="cls-81" d="M1803.8,909.69c-.69-.14-1.42-.05-2.07,.33l-21.53,12.27c-8.76,5-18.68,7.62-28.77,7.62h-132.41c-6.92,0-13.74-1.69-19.86-4.93l-28.58-15.1c-1.47-.78-3.3-.22-4.08,1.26-.78,1.47-.22,3.3,1.26,4.08l28.58,15.1c6.99,3.69,15.22,6.06,23.12,6.06h131.65c11.14,0,22.41-3.33,32.08-8.85l20.04-11.43c1.44-1.68,1.95-3.54,.57-6.42Z"/></g><g><rect class="cls-31" x="615.24" y="1071.27" width="645.57" height="23.83"/><polygon class="cls-15" points="1260.96 1071.27 615.24 1071.27 670.76 875.15 1212.65 875.15 1260.96 1071.27"/></g><path class="cls-15" d="M1314.55,346.98c-.64,.18-1.65,.35-3.03,.53-1.38,.18-2.74,.26-4.08,.26s-2.53-.1-3.56-.31c-1.02-.2-1.89-.57-2.59-1.1-.7-.53-1.23-1.26-1.58-2.19-.35-.94-.53-2.16-.53-3.69v-13.69h-16.85v20.19c-.64,.18-1.65,.35-3.03,.53-1.38,.18-2.74,.26-4.08,.26s-2.53-.1-3.56-.31c-1.02-.2-1.89-.57-2.59-1.1-.7-.53-1.23-1.26-1.58-2.19-.35-.94-.53-2.16-.53-3.69v-46.35c.64-.12,1.67-.28,3.07-.48,1.4-.2,2.75-.31,4.04-.31s2.53,.1,3.56,.31c1.02,.21,1.89,.57,2.59,1.1,.7,.53,1.23,1.26,1.58,2.19,.35,.94,.53,2.17,.53,3.69v14.05h16.85v-20.54c.64-.12,1.67-.28,3.07-.48,1.4-.2,2.75-.31,4.04-.31s2.53,.1,3.56,.31c1.02,.21,1.89,.57,2.59,1.1,.7,.53,1.23,1.26,1.58,2.19,.35,.94,.53,2.17,.53,3.69v46.35Z"/><path class="cls-86" d="M1064.98,93.87c0-2.52,.73-4.51,2.19-5.97,1.46-1.46,3.45-2.19,5.97-2.19h28.97c.41,.64,.77,1.49,1.1,2.55,.32,1.05,.48,2.17,.48,3.34,0,2.22-.48,3.81-1.45,4.74-.97,.94-2.24,1.4-3.82,1.4h-18.52v8.16h19.75c.41,.64,.77,1.48,1.1,2.5,.32,1.02,.48,2.12,.48,3.29,0,2.23-.47,3.81-1.4,4.74s-2.19,1.4-3.77,1.4h-16.15v9.22h22.56c.41,.64,.78,1.49,1.1,2.55,.32,1.05,.48,2.17,.48,3.34,0,2.22-.48,3.82-1.45,4.78-.97,.97-2.24,1.45-3.82,1.45h-25.63c-2.52,0-4.51-.73-5.97-2.19-1.46-1.46-2.19-3.45-2.19-5.97v-37.13Z"/><path class="cls-104" d="M628.19,562.74c-2.52,0-4.51-.73-5.97-2.19-1.46-1.46-2.19-3.45-2.19-5.97v-45.38c.64-.12,1.67-.28,3.07-.48,1.4-.2,2.75-.31,4.04-.31s2.53,.1,3.56,.31c1.02,.21,1.89,.57,2.59,1.1,.7,.53,1.23,1.26,1.58,2.19,.35,.94,.53,2.17,.53,3.69v34.67h20.1c.41,.64,.79,1.51,1.14,2.59,.35,1.08,.53,2.21,.53,3.38,0,2.34-.5,3.99-1.49,4.96-1,.97-2.31,1.45-3.95,1.45h-23.53Z"/><path class="cls-94" d="M1237.8,855.9c-.64,.18-1.65,.35-3.03,.53-1.38,.18-2.74,.26-4.08,.26s-2.53-.1-3.56-.31c-1.02-.2-1.89-.57-2.59-1.1-.7-.53-1.23-1.26-1.58-2.19-.35-.94-.53-2.16-.53-3.69v-41.35c0-1.23,.34-2.18,1.01-2.85s1.59-1.21,2.77-1.62c1.99-.7,4.26-1.21,6.8-1.54,2.55-.32,5.11-.48,7.68-.48,8.08,0,14.25,1.73,18.52,5.18,4.27,3.45,6.41,8.13,6.41,14.05,0,2.87-.45,5.46-1.36,7.77-.91,2.31-2.25,4.3-4.04,5.97-1.79,1.67-4.04,2.96-6.76,3.86-2.72,.91-5.87,1.36-9.44,1.36h-6.23v16.15Zm4.56-28.18c2.46,0,4.35-.57,5.66-1.71,1.32-1.14,1.98-2.88,1.98-5.22s-.69-3.94-2.06-5.14c-1.38-1.2-3.38-1.8-6.01-1.8-.94,0-1.71,.02-2.33,.04-.61,.03-1.24,.1-1.89,.22v13.61h4.65Z"/><path class="cls-15" d="M763.34,168.8c-.76,.64-1.74,1.16-2.94,1.54-1.2,.38-2.59,.57-4.17,.57-2.11,0-3.85-.26-5.22-.79-1.38-.53-2.27-1.43-2.68-2.72-1.64-5.15-2.98-9.32-4.04-12.51-1.05-3.19-1.87-5.98-2.46-8.38h-.44c-.18,3.45-.31,6.6-.4,9.44-.09,2.84-.15,5.6-.18,8.3-.03,2.69-.09,5.41-.18,8.16-.09,2.75-.22,5.79-.39,9.13-.76,.29-1.76,.54-2.98,.75-1.23,.2-2.46,.31-3.69,.31-2.58,0-4.58-.41-6.01-1.23-1.43-.82-2.15-2.31-2.15-4.48l2.55-44.77c.47-.76,1.49-1.58,3.07-2.46,1.58-.88,3.8-1.32,6.67-1.32,3.1,0,5.53,.48,7.29,1.45,1.76,.97,3.04,2.53,3.86,4.7,.53,1.4,1.1,3.01,1.71,4.83,.61,1.81,1.23,3.69,1.84,5.62,.61,1.93,1.21,3.85,1.8,5.75,.58,1.9,1.11,3.61,1.58,5.14h.44c1.4-4.92,2.81-9.67,4.21-14.27,1.4-4.59,2.69-8.44,3.86-11.54,.88-.47,2-.86,3.38-1.19,1.37-.32,2.91-.48,4.61-.48,2.87,0,5.21,.42,7.02,1.27,1.81,.85,2.87,2.06,3.16,3.64,.23,1.17,.48,2.97,.75,5.4,.26,2.43,.54,5.17,.83,8.21,.29,3.04,.58,6.26,.88,9.66,.29,3.39,.57,6.66,.83,9.79,.26,3.13,.48,6,.66,8.6,.18,2.6,.29,4.61,.35,6.01-1,.59-2.03,1.01-3.12,1.27-1.08,.26-2.47,.4-4.17,.4-2.23,0-4.1-.38-5.62-1.14-1.52-.76-2.34-2.25-2.46-4.48-.35-6.38-.57-12.11-.66-17.21-.09-5.09-.22-9.36-.4-12.82h-.44c-.59,2.28-1.43,5.15-2.55,8.6-1.11,3.45-2.46,7.87-4.04,13.26Z"/><path class="cls-86" d="M1292.99,507.6c0-2.52,.73-4.51,2.19-5.97,1.46-1.46,3.45-2.19,5.97-2.19h28.97c.41,.64,.77,1.49,1.1,2.55,.32,1.05,.48,2.17,.48,3.34,0,2.22-.48,3.81-1.45,4.74-.97,.94-2.24,1.4-3.82,1.4h-18.52v8.16h19.75c.41,.64,.77,1.48,1.1,2.5,.32,1.02,.48,2.12,.48,3.29,0,2.23-.47,3.81-1.4,4.74s-2.19,1.4-3.77,1.4h-16.15v9.22h22.56c.41,.64,.78,1.49,1.1,2.55,.32,1.05,.48,2.17,.48,3.34,0,2.22-.48,3.82-1.45,4.78-.97,.97-2.24,1.45-3.82,1.45h-25.63c-2.52,0-4.51-.73-5.97-2.19-1.46-1.46-2.19-3.45-2.19-5.97v-37.13Z"/><path class="cls-86" d="M910.19,177.86c-1.14-.6-2.21-1.69-3.21-3.26-1-1.57-1.5-3.43-1.5-5.57s.55-3.63,1.65-4.66c1.1-1.04,2.72-1.82,4.86-2.36l7.82-1.91c3.34-.87,5.01-2.47,5.01-4.81,0-1.27-.62-2.37-1.86-3.31-1.24-.93-3.36-1.4-6.37-1.4-2.74,0-5.31,.35-7.72,1.05-2.41,.7-4.35,1.52-5.82,2.46-1.14-.87-2.11-1.92-2.91-3.16-.8-1.24-1.2-2.72-1.2-4.46s.5-3.26,1.5-4.56c1-1.3,2.39-2.37,4.16-3.21,1.77-.83,3.88-1.45,6.32-1.85,2.44-.4,5.13-.6,8.07-.6,7.89,0,13.85,1.75,17.9,5.26,4.04,3.51,6.07,8.11,6.07,13.79,0,10.7-7.55,17.55-22.66,20.56l-10.13,2.01Zm-3.31,13.14c0-2.74,.85-5,2.56-6.77,1.71-1.77,4.06-2.66,7.07-2.66s5.36,.89,7.07,2.66c1.71,1.77,2.56,4.03,2.56,6.77s-.85,5-2.56,6.77c-1.7,1.77-4.06,2.66-7.07,2.66s-5.36-.89-7.07-2.66c-1.7-1.77-2.56-4.03-2.56-6.77Z"/><path class="cls-104" d="M1204.6,217.39c-1.14-.6-2.21-1.69-3.21-3.26-1-1.57-1.5-3.43-1.5-5.57s.55-3.63,1.65-4.66c1.1-1.04,2.72-1.82,4.86-2.36l7.82-1.91c3.34-.87,5.01-2.47,5.01-4.81,0-1.27-.62-2.37-1.86-3.31-1.24-.93-3.36-1.4-6.37-1.4-2.74,0-5.31,.35-7.72,1.05-2.41,.7-4.35,1.52-5.82,2.46-1.14-.87-2.11-1.92-2.91-3.16-.8-1.24-1.2-2.72-1.2-4.46s.5-3.26,1.5-4.56c1-1.3,2.39-2.37,4.16-3.21,1.77-.83,3.88-1.45,6.32-1.85,2.44-.4,5.13-.6,8.07-.6,7.89,0,13.85,1.75,17.9,5.26,4.04,3.51,6.07,8.11,6.07,13.79,0,10.7-7.55,17.55-22.66,20.56l-10.13,2.01Zm-3.31,13.14c0-2.74,.85-5,2.56-6.77,1.71-1.77,4.06-2.66,7.07-2.66s5.36,.89,7.07,2.66c1.71,1.77,2.56,4.03,2.56,6.77s-.85,5-2.56,6.77c-1.7,1.77-4.06,2.66-7.07,2.66s-5.36-.89-7.07-2.66c-1.7-1.77-2.56-4.03-2.56-6.77Z"/><path class="cls-15" d="M554.34,391.16c-1.14-.6-2.21-1.69-3.21-3.26-1-1.57-1.5-3.43-1.5-5.57s.55-3.63,1.65-4.66c1.1-1.04,2.72-1.82,4.86-2.36l7.82-1.91c3.34-.87,5.01-2.47,5.01-4.81,0-1.27-.62-2.37-1.86-3.31-1.24-.93-3.36-1.4-6.37-1.4-2.74,0-5.31,.35-7.72,1.05-2.41,.7-4.35,1.52-5.82,2.46-1.14-.87-2.11-1.92-2.91-3.16-.8-1.24-1.2-2.72-1.2-4.46s.5-3.26,1.5-4.56c1-1.3,2.39-2.37,4.16-3.21,1.77-.83,3.88-1.45,6.32-1.85,2.44-.4,5.13-.6,8.07-.6,7.89,0,13.85,1.75,17.9,5.26,4.04,3.51,6.07,8.11,6.07,13.79,0,10.7-7.55,17.55-22.66,20.56l-10.13,2.01Zm-3.31,13.14c0-2.74,.85-5,2.56-6.77,1.71-1.77,4.06-2.66,7.07-2.66s5.36,.89,7.07,2.66c1.71,1.77,2.56,4.03,2.56,6.77s-.85,5-2.56,6.77c-1.7,1.77-4.06,2.66-7.07,2.66s-5.36-.89-7.07-2.66c-1.7-1.77-2.56-4.03-2.56-6.77Z"/><path class="cls-86" d="M575.75,701.91c3.2,0,6.11,.33,8.75,.98,2.64,.65,4.89,1.64,6.75,2.98,1.87,1.33,3.3,3.02,4.31,5.06,1.01,2.04,1.51,4.46,1.51,7.24v19.9c0,1.54-.43,2.8-1.29,3.78-.86,.98-1.88,1.82-3.07,2.53-3.85,2.31-9.27,3.46-16.26,3.46-3.14,0-5.97-.3-8.48-.89-2.52-.59-4.68-1.48-6.49-2.67-1.81-1.18-3.2-2.69-4.18-4.53-.98-1.84-1.47-3.97-1.47-6.4,0-4.09,1.21-7.23,3.64-9.42,2.43-2.19,6.19-3.55,11.28-4.09l11.64-1.24v-.62c0-1.72-.76-2.95-2.27-3.69-1.51-.74-3.69-1.11-6.53-1.11-2.25,0-4.44,.24-6.57,.71-2.13,.47-4.06,1.07-5.78,1.78-.77-.53-1.42-1.35-1.95-2.44-.53-1.1-.8-2.24-.8-3.42,0-1.54,.37-2.77,1.11-3.69,.74-.92,1.88-1.7,3.42-2.35,1.72-.65,3.74-1.12,6.09-1.42,2.34-.3,4.54-.44,6.62-.44Zm.71,34.91c1.01,0,2.12-.1,3.33-.31,1.21-.21,2.12-.49,2.71-.84v-7.11l-6.4,.53c-1.66,.12-3.02,.47-4.09,1.07-1.07,.59-1.6,1.48-1.6,2.67s.46,2.15,1.38,2.89c.92,.74,2.47,1.11,4.66,1.11Z"/><path class="cls-104" d="M1226.23,631.67c.48-.15,1.26-.3,2.32-.47,1.06-.17,2.15-.25,3.27-.25s2.02,.07,2.87,.22c.85,.14,1.56,.44,2.14,.87s1.02,1.03,1.31,1.78c.29,.75,.44,1.73,.44,2.94v7.12c1.21-.48,2.36-.82,3.45-1.02,1.09-.19,2.29-.29,3.6-.29,2.32,0,4.53,.41,6.61,1.23,2.08,.82,3.92,2.02,5.52,3.59,1.6,1.57,2.86,3.52,3.78,5.85,.92,2.32,1.38,5.01,1.38,8.06s-.47,5.89-1.42,8.24c-.94,2.35-2.26,4.3-3.96,5.85-1.69,1.55-3.76,2.72-6.21,3.52-2.45,.8-5.15,1.2-8.1,1.2-3.2,0-5.91-.38-8.13-1.13-2.23-.75-4.12-1.68-5.66-2.8-2.13-1.5-3.2-3.44-3.2-5.81v-38.71Zm16.99,38.71c2.23,0,3.96-.76,5.19-2.29s1.85-3.79,1.85-6.79-.63-5.33-1.89-6.83c-1.26-1.5-2.95-2.25-5.08-2.25-.97,0-1.8,.1-2.51,.29-.7,.19-1.46,.48-2.29,.87v15.83c.53,.34,1.17,.62,1.92,.84,.75,.22,1.68,.33,2.8,.33Z"/><path class="cls-94" d="M676.4,261.88c-1.48,0-2.89,.24-4.22,.71-1.33,.48-2.49,1.17-3.46,2.09-.98,.92-1.76,2.06-2.35,3.42-.59,1.36-.89,2.96-.89,4.8,0,3.67,1.05,6.43,3.15,8.26,2.1,1.84,4.66,2.75,7.68,2.75,1.78,0,3.32-.21,4.62-.62,1.3-.41,2.46-.86,3.46-1.33,1.18,.83,2.07,1.73,2.67,2.71,.59,.98,.89,2.15,.89,3.51,0,2.43-1.16,4.31-3.46,5.64-2.31,1.33-5.51,2-9.6,2-3.73,0-7.11-.55-10.13-1.64-3.02-1.1-5.61-2.63-7.77-4.62-2.16-1.98-3.84-4.37-5.02-7.15-1.19-2.78-1.78-5.86-1.78-9.24,0-3.91,.64-7.33,1.91-10.26,1.27-2.93,3.01-5.34,5.2-7.24,2.19-1.89,4.72-3.32,7.6-4.26,2.87-.95,5.91-1.42,9.11-1.42,4.26,0,7.55,.77,9.86,2.31,2.31,1.54,3.46,3.52,3.46,5.95,0,1.13-.27,2.18-.8,3.15s-1.16,1.82-1.87,2.53c-1.01-.47-2.22-.93-3.64-1.38-1.42-.44-2.96-.67-4.62-.67Z"/><g><path class="cls-5" d="M759.83,818.84c-3.79-1.41-7.54-2.96-11.25-4.64"/><path class="cls-6" d="M727.15,802.94c-64.43-38.78-115.1-113.64-144.33-173.94-12.17-25.1-20.46-52.69-15.31-79.59s26.3-52.72,56.45-59.37,66.47,11.87,68.64,39.08c1.61,20.21-15.58,39.39-37.38,46.04-21.8,6.66-46.64,2.2-66.3-8.4-13.68-7.37-25.46-17.76-32.45-30.44-14.78-26.82-5.9-59.88,13.18-84.51,19.09-24.63,46.95-42.76,73.68-61.12,26.73-18.36,53.54-38.17,69.15-64.61,17.52-29.67,17.76-69.88-13-92.11-17.98-13-43.61-15.44-63.38-4.63-34.74,18.98-22.31,61.36,8.05,76.06,24.66,11.94,56.5,7.79,80.25-5.5,23.75-13.29,40.49-34.37,53.36-56.36,12.87-21.99,22.49-45.36,35.72-67.18,13.24-21.82,30.76-42.53,55.15-54.88,32.23-16.33,74.82-15.41,106.1,2.28,19.96,11.29,35.72,30.38,35.24,51.21-.47,20.83-15.01,56.5-45.1,39.04-27.16-35.92,38.32-55.32,74.74-57.3,41.7-2.26,81.23,18.99,106.29,47.8,34.78,39.98,53.31,61.15,55.75,103.45,2.06,35.62,16.08,71.52,39.9,97.99,27.04,30.05,50.41,46.2,68.82,50.29,23.82,5.29,34.8-15.35,37.06-26.47,4.97-24.45-25.41-30-51.67-32.71-19.07-1.97-39.74-.26-55.04,9.92-27.3,18.16-26.26,56.03-9.19,82.09,17.07,26.06,13.93,44.37,38.07,65.71,25.51,22.55,47.55,51.68,41.58,84.35-5.16,28.24-30.83,50.41-62.79,55.95-27.01,4.68-48.75-4.28-60-21.26-7.99-12.06-6.42-27.6,4.96-37.34,17.4-14.9,36.91-18.69,59.21-18.8,29.74-.15,66.02,28.77,73.41,54.04,5.84,19.96-4.89,41.09-20.13,56.77-41.08,42.22-107.9,53.24-172.1,58.42"/><path class="cls-5" d="M1121.66,787.81c-4.07,.29-8.12,.56-12.14,.82"/></g><g id="right_arm"><path class="cls-39" d="M1035.66,700.99c-21.27-35.61,34.22-74.15,61.06-29.23,38.25,63.88,41.56,75.13,79.8,139.01,18.42,30.83-32.86,58.97-51.27,28.14-44.05-61.07-45.54-76.85-89.59-137.92h0Z"/><path class="cls-39" d="M1131.39,806.83c17.14-26.61,65.42,1.01,43.8,34.59-30.71,47.8-44.14,64.47-74.85,112.27-14.84,23.04-51.45-2.48-36.62-25.52,26.83-50.82,40.84-70.52,67.67-121.34h0Z"/><path class="cls-40" d="M1029.06,928.95c-5.99,3.48-6.54,12.44,3.52,10.2,5.48-1.22,16.7-7.38,16.81-5.5,.43,6.92-26.49,32.73-32.7,38.62-6.64,6.31-1.08,13.01,7.19,7.53,8.01-5.31,24.13-20.1,30.73-26.79-3,5.95-26.17,27.89-28.89,30.49-9.32,8.89-1.11,16.75,10.15,8.27,13.49-10.16,24.7-21.53,31.17-28.99-3.03,7.41-20.3,25.66-24.28,29.59-9.23,9.09,1.99,13.27,7.94,8.54,6.27-4.98,14.22-14.09,31.33-33.8-2.64,9.93-6.17,16.14-9.23,22.73-3.19,6.85,3.42,9.88,8.8,2.95,7.98-10.29,22.42-37.27,20.33-49.77-5.94-35.66-22.88-43.13-72.87-14.08h0Z"/></g><g id="left_arm"><path class="cls-39" d="M842.79,943.73l20.43-.93,12.31,12.54c2.6,2.65,.23,7.07-3.41,6.37l-33.73-6.41"/><path class="cls-39" d="M871.57,973.31c-.34,18.45-19.52,41.05-35.05,40.77-15.54-.29-27.85-15.48-27.51-33.93,.34-18.45,13.21-33.17,28.75-32.89,15.54,.29,34.16,7.6,33.82,26.04Z"/><line class="cls-1" x1="855.23" y1="967.35" x2="870.89" y2="975.19"/><line class="cls-1" x1="851.69" y1="981.97" x2="867.53" y2="989.43"/><line class="cls-1" x1="842.94" y1="996.3" x2="858.53" y2="1004.26"/><path class="cls-39" d="M844.52,713.21c17.65-37.54-41.39-70.4-63.65-23.05-31.74,67.35-33.92,78.87-65.66,146.22-15.28,32.5,38.53,55.43,53.81,22.93,37.79-65.13,37.71-80.97,75.5-146.11h0Z"/><path class="cls-39" d="M759.73,828.01c-19.68-24.79-65,7.48-40.17,38.75,35.29,44.53,50.3,59.79,85.59,104.32,17.04,21.46,50.96-7.56,33.92-29.02-31.72-47.91-47.62-66.14-79.34-114.05h0Z"/></g><g id="body"><path class="cls-107" d="M818.66,737.03c0,91.72,6.93,3.91,2.34,153.19-1.53,49.86,200.21-29.35,255.33-1.79,0,0-.33-44.16-3.97-154.98-1.6-48.59-3.85-91.9-40.65-100.99-48.37-11.95-120.73-13.97-177.96,3.78-50.59,15.69-45.04,41.42-45.03,94.84l9.94,5.95Z"/><path class="cls-106" d="M1024.79,630.78c-13.58,69.65-119.48,68.8-163.54,3.13,53.22-14.21,117.55-12.85,163.54-3.13h0Z"/><path class="cls-107" d="M814.37,801.17c8.92-17.74,37.41-77.61,46.33-95.35,24.45-48.64-15.92-95.43-69.03-36.84-14.07,15.52-38.63,79.45-48.15,98.1,23.62,11.36,49,15.48,70.85,34.09h0Z"/><path class="cls-107" d="M1081.8,785.86c-10.07-17.07-40.03-76.57-52.64-91.86-28.83-34.96-7.22-85.6,56.53-40.84,17.11,12.02,48.42,77.31,59.15,95.26-21.01,12.48-44.38,17.88-63.04,37.43h0Z"/><path class="cls-4" d="M852.31,699.81c-.57,42.54-11.53,72.59-29.54,98.01"/><path class="cls-4" d="M1035.45,715.22c23.45,27.25,14.52,37.69,34.36,70.61"/><path class="cls-9" d="M862.19,635.52s20.76,49.42,93.99,49.3c24.86-.04,53.26-9.08,68.43-52.31"/><path class="cls-40" d="M866.89,632.07c36.14-10.11,104.98-15.06,153.38-2.58-37.86,92.93-144.34,30.12-153.38,2.58Z"/></g><g><path class="cls-40" d="M1050.44,528.07l19.01-39.58c.4-1.47,43.39-14.98,26.1,35.86-13.46,39.57-46.37,12.34-45.11,3.72h0Z"/><path class="cls-40" d="M951.11,322.21c-120.22-2.1-155.81,82.2-138.61,161.6,14.99,69.21,59.04,133.96,133.18,135.25,101.98,1.78,129.72-65.44,141.55-134.8,13.37-78.39-16.74-159.97-136.13-162.06h0Z"/><path class="cls-105" d="M1048.3,370.16c15.18,25.18,11.09,13.86,23.55,44.87,12.02,29.93,8.42,60.48,21.12,54.22,7.2-3.55,9.98-82.58-.33-108.93-16.61-42.46-46.62,6.05-44.34,9.83h0Z"/><path class="cls-105" d="M831.77,512.98c17.62-266.76,235.92,42.37,289.33-201.62-13.01,2.58-20.64,12.44-35.31,19.75-3.03,1.51,12.67-58.84,1.94-59.71-4.12-.33-11.16,12.51-43.74,28.98-7.29,3.68-16.23-35.42-22.15-27.34-32.58,44.51-29.4,9.88-29.65,9.84-24.78,4.92-92.92-23.14-149.03,60.74,5.16-15.17,2.9-26.93,1.76-23.58-12.48,36.71-51.84,40.98-52.83,105.23-.63,40.75,18.59,52.55,22.35,85.94,.72,6.64,16.88,8.53,17.33,1.77h0Z"/><path class="cls-40" d="M848.7,524.79l-13.64-41.74c-.2-1.51-41.04-20.56-30.59,32.11,8.13,41,44.34,18.33,44.23,9.63h0Z"/><path class="cls-2" d="M970.46,505.61s5.85,19.68,8.07,25.02c2.23,5.34-26.04,8.4-26.04,8.4"/><path class="cls-2" d="M940.39,565.15c9.47-5.33,19.97-2.76,31.1,4.65"/><circle class="cls-91" cx="913.04" cy="500.64" r="14.86"/><circle class="cls-91" cx="1020.91" cy="502.85" r="14.86"/><path class="cls-3" d="M828.49,495.95c-10.2-11.62-31.03,19.16,0,29.87"/><path class="cls-7" d="M912.91,372.7s110.86,57.95,178.32-26.27"/><path class="cls-7" d="M940.39,355.16s68.07,25.88,126.3-18.38"/><path class="cls-8" d="M1007.49,469.85c8.44-6.27,20.7-4.77,28.57,1.06"/><path class="cls-8" d="M894.69,470.15c7.74-7.12,20.09-6.9,28.53-1.93"/><path class="cls-40" d="M977.24,596.49l-1.65,26.24c3.92,20.79-60.1,23.35-63.8,1.71l1.65-34.59c2.98-16.18,66.79-11.4,63.81,6.63h0Z"/></g><g><polygon class="cls-102" points="975.48 1014.91 1010.17 938.24 719.55 938.24 674.74 1014.91 975.48 1014.91"/><path class="cls-96" d="M652.02,840.24l22.72,182.49h300.74l13.73-182.87c.35-4.62-3.31-8.57-7.95-8.57h-321.32c-4.79,0-8.5,4.2-7.91,8.96Z"/><circle class="cls-102" cx="825.51" cy="923.93" r="12.9" transform="translate(-265.59 1510.98) rotate(-76.5)"/><polygon points="1010.17 938.24 1010.17 943.09 975.48 1022.73 975.48 1014.91 1010.17 938.24"/></g></g></g></svg>