<?xml version="1.0" encoding="UTF-8"?><svg id="Icon" xmlns="http://www.w3.org/2000/svg" xmlns:xlink="http://www.w3.org/1999/xlink" viewBox="0 0 500 500"><defs><style>.cls-1{fill:#ffecd1;}.cls-2{fill:#2d2a26;}.cls-3{fill:url(#radial-gradient);}.cls-4{fill:#d3eaed;opacity:.8;}.cls-5{fill:#dce3eb;opacity:.4;}</style><radialGradient id="radial-gradient" cx="267.28" cy="221.87" fx="267.28" fy="221.87" r="126.21" gradientUnits="userSpaceOnUse"><stop offset="0" stop-color="#ffa400"/><stop offset="1" stop-color="#ffa400"/></radialGradient></defs><path class="cls-1" d="M221.76,392.67l.86,.23c6.31-9.17,13.55-18.16,21.63-26.82l-40.08-10.81c2.63,11.55,4.37,22.96,5.21,34.06l12.39,3.34Z"/><circle class="cls-5" cx="267.51" cy="203.05" r="58.39"/><path class="cls-3" d="M297.65,88.49c-45.74-12.36-77.73,2.69-96.51,17.47-23.53,18.52-37.08,44.25-41.91,62.15-10.47,38.78-4.29,63.78,10.76,96.34l1.24,2.67c10.25,22.12,22.94,49.53,30.87,79.71l48.18,13c22.06-22.13,46.83-39.44,66.83-53.42l2.34-1.64c29.41-20.56,47.32-39.05,57.79-77.84,7.64-28.28,9.4-114.43-79.58-138.44Zm-30.14,172.95c-32.2,0-58.39-26.19-58.39-58.39s26.19-58.39,58.39-58.39,58.39,26.19,58.39,58.39-26.19,58.39-58.39,58.39Z"/><path class="cls-2" d="M164.33,270.31c10.9,23.53,23.25,50.19,30.95,80.54l.04,.15c3.58,14.12,6.52,36.28,6.52,36.28,0,0,2.08,12.36,3.7,16.65,.99,2.6,3.03,4.49,5.59,5.18,.69,.19,1.4,.28,2.1,.28,1.89,0,3.76-.67,5.34-1.94h0c3.56-2.89,11.56-12.53,11.56-12.53,0,0,13.77-17.75,24-28.19,21.95-22.38,46.05-39.23,67.32-54.09l2.35-1.64c30.15-21.08,49.76-41.27,60.78-82.09,12.14-44.99-.19-124.9-84.95-147.77-48.79-13.17-83.05,2.97-103.2,18.83-25,19.67-39.4,47.07-44.55,66.15-11.01,40.81-4.23,68.13,11.2,101.52l1.24,2.68Zm58.29,122.58l-.86-.23-12.39-3.34c-.84-11.1-2.58-22.51-5.21-34.06l40.08,10.81c-8.07,8.66-15.32,17.65-21.63,26.82Zm-63.38-224.79c4.83-17.9,18.37-43.63,41.91-62.15,18.78-14.78,50.77-29.83,96.51-17.47,88.98,24.01,87.22,110.16,79.58,138.44-10.47,38.79-28.38,57.28-57.79,77.84l-2.34,1.64c-20,13.98-44.77,31.29-66.83,53.42l-48.18-13c-7.93-30.19-20.62-57.59-30.87-79.71l-1.24-2.67c-15.05-32.56-21.22-57.56-10.75-96.34Z"/><path class="cls-2" d="M267.51,269.56c36.67,0,66.51-29.84,66.51-66.51s-29.84-66.51-66.51-66.51-66.51,29.84-66.51,66.51,29.84,66.51,66.51,66.51Zm0-124.9c32.2,0,58.39,26.19,58.39,58.39s-26.19,58.39-58.39,58.39-58.39-26.19-58.39-58.39,26.19-58.39,58.39-58.39Z"/><path class="cls-4" d="M309.9,189.51c-1.2-.15-2.17-1.12-2.28-2.38-.71-8.11-7.94-18.7-17.57-21.54-1.39-.41-2.19-1.87-1.77-3.26,.41-1.39,1.85-2.18,3.26-1.78,12.07,3.56,20.46,16.33,21.32,26.12,.13,1.45-.94,2.72-2.39,2.85-.19,.02-.38,.01-.57-.01Z"/><path class="cls-4" d="M309.9,189.51c-1.2-.15-2.17-1.12-2.28-2.38-.71-8.11-7.94-18.7-17.57-21.54-1.39-.41-2.19-1.87-1.77-3.26,.41-1.39,1.85-2.18,3.26-1.78,12.07,3.56,20.46,16.33,21.32,26.12,.13,1.45-.94,2.72-2.39,2.85-.19,.02-.38,.01-.57-.01Z"/></svg>