<svg width="125" height="60" viewBox="0 0 62 30" fill="none" xmlns="http://www.w3.org/2000/svg">
<path d="M36.5 6C36.5 3.51562 34.4844 1.5 32 1.5C29.5156 1.5 27.5 3.51562 27.5 6C27.5 8.48438 29.5156 10.5 32 10.5C34.4844 10.5 36.5 8.48438 36.5 6Z" stroke="black" stroke-width="0.75" stroke-miterlimit="10"/>
<path d="M34.25 4.125L31.1 7.875L29.75 6.375" stroke="black" stroke-width="0.75" stroke-linecap="round" stroke-linejoin="round"/>
<path d="M3 27C2.73478 27 2.48043 26.8946 2.29289 26.7071C2.10536 26.5196 2 26.2652 2 26V10C2 9.73478 2.10536 9.48043 2.29289 9.29289C2.48043 9.10536 2.73478 9 3 9H21C21.2652 9 21.5196 9.10536 21.7071 9.29289C21.8946 9.48043 22 9.73478 22 10V26C22 26.2652 21.8946 26.5196 21.7071 26.7071C21.5196 26.8946 21.2652 27 21 27H3ZM15 16H4V25H15V16ZM20 16H17V25H20V16ZM20 11H4V14H20V11Z" fill="black"/>
<path d="M59 9C59.2652 9 59.5196 9.10536 59.7071 9.29289C59.8946 9.48043 60 9.73478 60 10V26C60 26.2652 59.8946 26.5196 59.7071 26.7071C59.5196 26.8946 59.2652 27 59 27H41C40.7348 27 40.4804 26.8946 40.2929 26.7071C40.1054 26.5196 40 26.2652 40 26V10C40 9.73478 40.1054 9.48043 40.2929 9.29289C40.4804 9.10536 40.7348 9 41 9H59ZM42 16V25H58V16H42ZM42 14H58V11H42V14Z" fill="black"/>
</svg>
