<?xml version="1.0" encoding="UTF-8"?><svg id="Typeface" xmlns="http://www.w3.org/2000/svg" viewBox="0 0 500 500"><defs><style>.cls-1{fill:#2d2a26;}</style></defs><path class="cls-1" d="M46.48,227.51c-5.27,0-9.33,1.59-12.34,4.85l.43-2.17c.05-.25-.01-.51-.18-.7-.16-.2-.4-.31-.65-.31h-7.16c-.47,0-.85,.38-.85,.85v32.68s-3.49,26.66-3.49,26.66c-.03,.24,.04,.48,.21,.67,.16,.18,.39,.29,.64,.29h9.15c.46,0,.84-.37,.85-.83l.28-20.37c3.06,3.87,7.38,5.76,13.12,5.76,11.17,0,18.67-9.52,18.67-23.69s-7.5-23.69-18.67-23.69Zm1.43,33.9c-7.55,0-11.65-1.83-11.65-11.49s4.21-15.95,11.25-15.95,11.33,5.96,11.33,15.95-3.53,11.49-10.93,11.49Zm48.07-33.9c-4.63,0-9.71,1.04-15.11,3.08-.33,.12-.55,.44-.55,.79v5.81c0,.3,.16,.58,.41,.73,.26,.16,.58,.16,.84,.02,4.23-2.31,8.83-3.48,13.62-3.48,7.61,.51,11.49,3.93,11.55,10.17h-9.18c-16.88,0-20.42,8.51-20.42,15.65,0,8.88,6.05,14.62,15.41,14.62,6.09,0,10.76-1.88,14.2-5.71v3.75c0,.47,.38,.85,.85,.85h7.16c.47,0,.85-.38,.85-.85v-24.83c0-13.85-6.42-20.58-19.63-20.58Zm-2.31,34.78c-5.63,0-8.24-.6-8.86-4,.07-4.56,1.93-6.72,12.37-6.72h5.6v.74c0,9.07-2.63,9.98-9.1,9.98Zm64.75-.03v10.66c0,.47-.38,.85-.85,.85h-7.4c-11.67,0-15.81-3.97-15.81-15.17l.39-22.79h-4.39c-.47,0-.85-.38-.85-.85v-5.57c0-.47,.38-.85,.85-.85h4.44l.37-10.01c.02-.46,.39-.82,.85-.82h7.56c.23,0,.45,.09,.61,.26,.16,.17,.24,.39,.24,.62l-.36,9.95h9.23c.47,0,.85,.38,.85,.85v5.57c0,.47-.38,.85-.85,.85h-9.28l-.38,18.11c0,6.81,1.24,7.5,6.56,7.5h7.4c.47,0,.85,.38,.85,.85Zm52.84-15.6l.79,26.24c0,.23-.08,.45-.24,.62-.16,.17-.38,.26-.61,.26h-9.07c-.23,0-.45-.09-.61-.26-.16-.17-.24-.39-.23-.62l1.11-26.02c.23-4.89-.53-8.18-2.34-10.08-1.39-1.46-3.5-2.17-6.44-2.17-7.08,0-11.65,5.38-11.65,13.72l.79,24.56c0,.23-.08,.45-.24,.62s-.38,.26-.61,.26h-8.75c-.23,0-.45-.09-.61-.25-.16-.17-.25-.39-.24-.62l1.59-60.49c.01-.46,.39-.82,.85-.82h7.16c.23,0,.45,.09,.61,.26s.24,.39,.24,.62l-.7,21c3.38-4.01,7.71-5.96,13.15-5.96,10.5,0,16.05,6.62,16.05,19.15Zm48.76-25.07v-9.07c0-.47,.38-.85,.85-.85h7.16c.47,0,.85,.38,.85,.85v9.07c0,.47-.38,.85-.85,.85h-7.16c-.47,0-.85-.38-.85-.85Zm8.86,7.78l1.19,43.53c0,.23-.08,.45-.24,.62-.16,.16-.38,.25-.61,.25h-9.15c-.23,0-.45-.09-.61-.25s-.24-.38-.24-.61l.78-37.5h-17.92l1.17,37.49c0,.23-.08,.45-.24,.62s-.38,.26-.61,.26h-9.55c-.23,0-.45-.09-.61-.25s-.24-.38-.24-.61l.78-37.5h-5.98c-.47,0-.85-.38-.85-.85v-5.17c0-.47,.38-.85,.85-.85h6v-2.18c0-9.32,4.56-14.21,14.8-15.88l7.21-.8c.24-.03,.48,.05,.66,.21,.18,.16,.28,.39,.28,.63v5.97c0,.4-.28,.74-.66,.83l-6.85,1.51c-4.27,.02-6.18,2.15-6.18,6.73v2.97h25.97c.46,0,.83,.36,.85,.82Zm54.83,17.25l1.11,26.27c0,.23-.08,.46-.23,.62-.16,.17-.38,.26-.61,.26h-10.19c-.23,0-.46-.1-.62-.26-.16-.17-.24-.4-.23-.63l1.51-26.42c0-8.11-2.32-11.44-7.99-11.44-9.96,0-12.05,7.03-12.05,12.92l1.19,24.95c0,.23-.07,.46-.23,.63-.16,.17-.38,.26-.61,.26h-9.95c-.23,0-.45-.09-.61-.25-.16-.17-.25-.39-.24-.62l1.19-43.93c.01-.46,.39-.82,.85-.82h7.16c.47,0,.85,.38,.85,.85v3.54c3.55-2.63,7.85-5.02,13.24-5.02,10.33,0,15.86,6.43,16.44,19.11Zm55.65-35.03h-7.16c-.46,0-.83,.36-.85,.82l-.7,20.93c-3.07-3.92-7.4-5.83-13.17-5.83-10.99,0-18.67,9.74-18.67,23.69s7.68,23.69,18.67,23.69c5.71,0,10.02-1.88,13.08-5.72v3.76c0,.47,.38,.85,.85,.85h7.16c.46,0,.84-.37,.85-.84l.8-60.49c0-.22-.09-.44-.24-.61s-.38-.25-.6-.25Zm-22.37,22.79c6.74,0,10.14,5.07,10.38,15.45-.22,8.95-3.31,10.4-10.61,10.4s-9.94-2.6-11.09-9.82c0-10.03,4.23-16.02,11.33-16.02Zm59.4-6.87h-.03c-13.35,0-21.66,8.99-22.25,24.08,0,14.08,8.75,22.78,23.45,23.29,5.69,0,11.24-1.15,16.49-3.41,.32-.14,.52-.45,.51-.79l-.16-9.87c0-.29-.16-.57-.42-.71-.25-.15-.57-.16-.83-.02-4.77,2.53-9.7,2.52-14.91,2.53h-.41c-9.48-.48-14.15-2.49-14.53-12.39h31.6c.47,0,.85-.38,.85-.85v-2.77c-.97-12.52-7.12-18.58-19.36-19.08Zm-12.27,14.8c.52-4.67,5.31-9.37,12.23-9.37,6.26,0,10.18,5.15,11.29,9.29l-23.52,.07Zm73.64-5.45c0,.31-.16,.59-.43,.74-.26,.15-.59,.15-.86,0-1.39-.83-2.74-.83-4.97-.83-6.99,0-10.53,4.86-10.53,14.43l1.59,21.66c.02,.23-.06,.47-.22,.64-.16,.17-.39,.27-.62,.27h-11.22c-.25,0-.49-.11-.65-.3-.16-.19-.22-.45-.18-.69,3.2-17.67,3.65-24.09,3.01-42.95,0-.23,.08-.45,.24-.62s.38-.26,.61-.26h6.61c.47,0,.85,.38,.85,.85v2.79c5.06-3.5,9.64-4.27,12.68-4.27,1.09,0,1.98,.11,3.36,.42,.39,.09,.66,.42,.66,.82l.08,7.32Z"/></svg>