<?xml version="1.0" encoding="UTF-8"?><svg id="Logo_Horizontal" xmlns="http://www.w3.org/2000/svg" xmlns:xlink="http://www.w3.org/1999/xlink" viewBox="0 0 800 500"><defs><style>.cls-1{fill:#f0f7f8;}.cls-2{fill:#ffecd1;}.cls-3{fill:#b6dce1;}.cls-4{fill:#2d2a26;}.cls-5{fill:url(#radial-gradient);}.cls-6{fill:#d3eaed;opacity:.8;}.cls-7{fill:#dce3eb;opacity:.4;}</style><radialGradient id="radial-gradient" cx="181.67" cy="218.62" fx="181.67" fy="218.62" r="51.68" gradientUnits="userSpaceOnUse"><stop offset="0" stop-color="#ffa400"/><stop offset="1" stop-color="#ffa400"/></radialGradient></defs><g><path class="cls-3" d="M23.57,303.74c-.19,.36-.48,1.13-.48,2.31s.29,1.95,.48,2.31H295.11c.19-.36,.48-1.13,.48-2.31s-.29-1.95-.48-2.31H23.57Z"/><path class="cls-1" d="M151.31,300.62c-16.12-16.03-37.88-24.32-57.59-21.76-27.11,3.54-44.66,14.33-55.23,21.76h112.82Z"/><path class="cls-1" d="M280.19,300.62c-10.57-7.43-28.12-18.22-55.23-21.76-19.7-2.55-41.46,5.73-57.59,21.76h112.82Z"/><path class="cls-2" d="M163.03,288.56l.35,.09c2.58-3.76,5.55-7.44,8.86-10.98l-16.41-4.43c1.08,4.73,1.79,9.4,2.13,13.95l5.07,1.37Z"/><circle class="cls-7" cx="181.77" cy="210.91" r="23.91"/><path class="cls-5" d="M194.11,164c-18.73-5.06-31.83,1.1-39.52,7.15-9.64,7.58-15.18,18.12-17.16,25.45-4.29,15.88-1.76,26.12,4.4,39.45l.51,1.09c4.2,9.06,9.39,20.28,12.64,32.64l19.73,5.32c9.03-9.06,19.18-16.15,27.37-21.87l.96-.67c12.04-8.42,19.38-15.99,23.66-31.87,3.13-11.58,3.85-46.86-32.59-56.69Zm-12.34,70.82c-13.18,0-23.91-10.73-23.91-23.91s10.73-23.91,23.91-23.91,23.91,10.73,23.91,23.91-10.73,23.91-23.91,23.91Z"/><path class="cls-4" d="M295.63,300.62h-10.09c-10.23-7.41-29-20.77-60.18-24.84-21.52-2.81-45.33,6.71-62.31,24.84h-7.43c-16.97-18.13-40.77-27.64-62.31-24.84h0c-31.18,4.07-49.95,17.44-60.17,24.84h-10.09c-1.72,0-3.07,2.38-3.07,5.42s1.35,5.42,3.07,5.42H295.63c1.72,0,3.07-2.38,3.07-5.42s-1.35-5.42-3.07-5.42Zm-70.68-21.76c27.12,3.54,44.66,14.33,55.23,21.76h-112.82c16.12-16.03,37.88-24.31,57.59-21.76Zm-131.24,0c19.72-2.56,41.47,5.73,57.59,21.76H38.49c10.57-7.43,28.12-18.22,55.23-21.76Zm201.39,29.49H23.57c-.19-.36-.48-1.13-.48-2.31s.29-1.95,.48-2.31H295.11c.19,.36,.48,1.13,.48,2.31s-.29,1.95-.48,2.31Zm-100.19-147.37c-19.98-5.39-34.01,1.22-42.26,7.71-10.24,8.06-16.14,19.27-18.24,27.09-4.51,16.71-1.73,27.9,4.59,41.57l.51,1.1c4.46,9.63,9.52,20.55,12.68,32.98l.02,.06c1.46,5.78,2.67,14.86,2.67,14.86,0,0,.85,5.06,1.52,6.82,.41,1.06,1.24,1.84,2.29,2.12,.28,.08,.57,.11,.86,.11,.77,0,1.54-.27,2.19-.8h0c1.46-1.18,4.73-5.13,4.73-5.13,0,0,5.64-7.27,9.83-11.54,8.99-9.17,18.86-16.07,27.57-22.15l.96-.67c12.35-8.63,20.37-16.9,24.89-33.61,4.97-18.42-.08-51.14-34.78-60.51Zm-31.54,127.66l-.35-.09-5.07-1.37c-.34-4.54-1.06-9.22-2.13-13.95l16.41,4.43c-3.31,3.54-6.27,7.23-8.86,10.98Zm63.31-67.96c-4.29,15.88-11.62,23.46-23.66,31.87l-.96,.67c-8.19,5.72-18.33,12.81-27.37,21.87l-19.73-5.32c-3.25-12.36-8.44-23.58-12.64-32.64l-.51-1.09c-6.16-13.33-8.69-23.57-4.4-39.45,1.98-7.33,7.52-17.87,17.16-25.45,7.69-6.05,20.79-12.21,39.52-7.15,36.44,9.83,35.71,45.11,32.59,56.69Zm-44.93-37.01c-15.02,0-27.24,12.22-27.24,27.24s12.22,27.24,27.24,27.24,27.24-12.22,27.24-27.24-12.22-27.24-27.24-27.24Zm0,51.15c-13.18,0-23.91-10.73-23.91-23.91s10.73-23.91,23.91-23.91,23.91,10.73,23.91,23.91-10.73,23.91-23.91,23.91Z"/><path class="cls-6" d="M199.12,205.37c-.49-.06-.89-.46-.93-.97-.29-3.32-3.25-7.66-7.2-8.82-.57-.17-.9-.77-.73-1.34,.17-.57,.76-.89,1.34-.73,4.94,1.46,8.38,6.69,8.73,10.7,.05,.59-.39,1.11-.98,1.17-.08,0-.16,0-.23,0Z"/></g><path class="cls-4" d="M343.86,212.74c-5.27,0-9.33,1.59-12.34,4.85l.43-2.17c.05-.25-.01-.51-.18-.7-.16-.2-.4-.31-.65-.31h-7.16c-.47,0-.85,.38-.85,.85v32.68s-3.49,26.66-3.49,26.66c-.03,.24,.04,.48,.21,.67,.16,.18,.39,.29,.64,.29h9.15c.46,0,.84-.37,.85-.83l.28-20.37c3.06,3.87,7.38,5.76,13.12,5.76,11.17,0,18.67-9.52,18.67-23.69s-7.5-23.69-18.67-23.69Zm1.43,33.9c-7.55,0-11.65-1.83-11.65-11.49s4.21-15.95,11.25-15.95,11.33,5.96,11.33,15.95-3.53,11.49-10.93,11.49Zm48.07-33.9c-4.63,0-9.71,1.04-15.11,3.08-.33,.12-.55,.44-.55,.79v5.81c0,.3,.16,.58,.41,.73,.26,.16,.58,.16,.84,.02,4.23-2.31,8.83-3.48,13.62-3.48,7.61,.51,11.49,3.93,11.55,10.17h-9.18c-16.88,0-20.42,8.51-20.42,15.65,0,8.88,6.05,14.62,15.41,14.62,6.09,0,10.76-1.88,14.2-5.71v3.75c0,.47,.38,.85,.85,.85h7.16c.47,0,.85-.38,.85-.85v-24.83c0-13.85-6.42-20.58-19.63-20.58Zm-2.31,34.78c-5.63,0-8.24-.6-8.86-4,.07-4.56,1.93-6.72,12.37-6.72h5.6v.74c0,9.07-2.63,9.98-9.1,9.98Zm64.75-.03v10.66c0,.47-.38,.85-.85,.85h-7.4c-11.67,0-15.81-3.97-15.81-15.17l.39-22.79h-4.39c-.47,0-.85-.38-.85-.85v-5.57c0-.47,.38-.85,.85-.85h4.44l.37-10.01c.02-.46,.39-.82,.85-.82h7.56c.23,0,.45,.09,.61,.26,.16,.17,.24,.39,.24,.62l-.36,9.95h9.23c.47,0,.85,.38,.85,.85v5.57c0,.47-.38,.85-.85,.85h-9.28l-.38,18.11c0,6.81,1.24,7.5,6.56,7.5h7.4c.47,0,.85,.38,.85,.85Zm52.84-15.6l.79,26.24c0,.23-.08,.45-.24,.62-.16,.17-.38,.26-.61,.26h-9.07c-.23,0-.45-.09-.61-.26-.16-.17-.24-.39-.23-.62l1.11-26.02c.23-4.89-.53-8.18-2.34-10.08-1.39-1.46-3.5-2.17-6.44-2.17-7.08,0-11.65,5.38-11.65,13.72l.79,24.56c0,.23-.08,.45-.24,.62s-.38,.26-.61,.26h-8.75c-.23,0-.45-.09-.61-.25-.16-.17-.25-.39-.24-.62l1.59-60.49c.01-.46,.39-.82,.85-.82h7.16c.23,0,.45,.09,.61,.26s.24,.39,.24,.62l-.7,21c3.38-4.01,7.71-5.96,13.15-5.96,10.5,0,16.05,6.62,16.05,19.15Zm48.76-25.07v-9.07c0-.47,.38-.85,.85-.85h7.16c.47,0,.85,.38,.85,.85v9.07c0,.47-.38,.85-.85,.85h-7.16c-.47,0-.85-.38-.85-.85Zm8.86,7.78l1.19,43.53c0,.23-.08,.45-.24,.62-.16,.16-.38,.25-.61,.25h-9.15c-.23,0-.45-.09-.61-.25s-.24-.38-.24-.61l.78-37.5h-17.92l1.17,37.49c0,.23-.08,.45-.24,.62s-.38,.26-.61,.26h-9.55c-.23,0-.45-.09-.61-.25s-.24-.38-.24-.61l.78-37.5h-5.98c-.47,0-.85-.38-.85-.85v-5.17c0-.47,.38-.85,.85-.85h6v-2.18c0-9.32,4.56-14.21,14.8-15.88l7.21-.8c.24-.03,.48,.05,.66,.21,.18,.16,.28,.39,.28,.63v5.97c0,.4-.28,.74-.66,.83l-6.85,1.51c-4.27,.02-6.18,2.15-6.18,6.73v2.97h25.97c.46,0,.83,.36,.85,.82Zm54.83,17.25l1.11,26.27c0,.23-.08,.46-.23,.62-.16,.17-.38,.26-.61,.26h-10.19c-.23,0-.46-.1-.62-.26-.16-.17-.24-.4-.23-.63l1.51-26.42c0-8.11-2.32-11.44-7.99-11.44-9.96,0-12.05,7.03-12.05,12.92l1.19,24.95c0,.23-.07,.46-.23,.63-.16,.17-.38,.26-.61,.26h-9.95c-.23,0-.45-.09-.61-.25-.16-.17-.25-.39-.24-.62l1.19-43.93c.01-.46,.39-.82,.85-.82h7.16c.47,0,.85,.38,.85,.85v3.54c3.55-2.63,7.85-5.02,13.24-5.02,10.33,0,15.86,6.43,16.44,19.11Zm55.65-35.03h-7.16c-.46,0-.83,.36-.85,.82l-.7,20.93c-3.07-3.92-7.4-5.83-13.17-5.83-10.99,0-18.67,9.74-18.67,23.69s7.68,23.69,18.67,23.69c5.71,0,10.02-1.88,13.08-5.72v3.76c0,.47,.38,.85,.85,.85h7.16c.46,0,.84-.37,.85-.84l.8-60.49c0-.22-.09-.44-.24-.61s-.38-.25-.6-.25Zm-22.37,22.79c6.74,0,10.14,5.07,10.38,15.45-.22,8.95-3.31,10.4-10.61,10.4s-9.94-2.6-11.09-9.82c0-10.03,4.23-16.02,11.33-16.02Zm59.4-6.87h-.03c-13.35,0-21.66,8.99-22.25,24.08,0,14.08,8.75,22.78,23.45,23.29,5.69,0,11.24-1.15,16.49-3.41,.32-.14,.52-.45,.51-.79l-.16-9.87c0-.29-.16-.57-.42-.71-.25-.15-.57-.16-.83-.02-4.77,2.53-9.7,2.52-14.91,2.53h-.41c-9.48-.48-14.15-2.49-14.53-12.39h31.6c.47,0,.85-.38,.85-.85v-2.77c-.97-12.52-7.12-18.58-19.36-19.08Zm-12.27,14.8c.52-4.67,5.31-9.37,12.23-9.37,6.26,0,10.18,5.15,11.29,9.29l-23.52,.07Zm73.64-5.45c0,.31-.16,.59-.43,.74-.26,.15-.59,.15-.86,0-1.39-.83-2.74-.83-4.97-.83-6.99,0-10.53,4.86-10.53,14.43l1.59,21.66c.02,.23-.06,.47-.22,.64-.16,.17-.39,.27-.62,.27h-11.22c-.25,0-.49-.11-.65-.3-.16-.19-.22-.45-.18-.69,3.2-17.67,3.65-24.09,3.01-42.95,0-.23,.08-.45,.24-.62s.38-.26,.61-.26h6.61c.47,0,.85,.38,.85,.85v2.79c5.06-3.5,9.64-4.27,12.68-4.27,1.09,0,1.98,.11,3.36,.42,.39,.09,.66,.42,.66,.82l.08,7.32Z"/></svg>