<?xml version="1.0" encoding="UTF-8"?><svg id="Logo_Vertical" xmlns="http://www.w3.org/2000/svg" xmlns:xlink="http://www.w3.org/1999/xlink" viewBox="0 0 500 500"><defs><style>.cls-1{fill:#f0f7f8;}.cls-2{fill:#ffecd1;}.cls-3{fill:#b6dce1;}.cls-4{fill:#2d2a26;}.cls-5{fill:url(#radial-gradient);}.cls-6{fill:#d3eaed;opacity:.8;}.cls-7{fill:#dce3eb;opacity:.4;}</style><radialGradient id="radial-gradient" cx="282.24" cy="182.3" fx="282.24" fy="182.3" r="80.41" gradientUnits="userSpaceOnUse"><stop offset="0" stop-color="#ffa400"/><stop offset="1" stop-color="#ffa400"/></radialGradient></defs><g><path class="cls-3" d="M36.25,314.74c-.3,.56-.75,1.75-.75,3.59s.45,3.04,.75,3.59H458.73c.3-.56,.75-1.75,.75-3.59s-.45-3.04-.75-3.59H36.25Z"/><path class="cls-1" d="M235,309.89c-25.08-24.94-58.93-37.83-89.61-33.85-42.18,5.51-69.48,22.29-85.93,33.85H235Z"/><path class="cls-1" d="M435.51,309.89c-16.45-11.56-43.74-28.34-85.93-33.85-30.66-3.98-64.51,8.91-89.6,33.85h175.53Z"/><path class="cls-2" d="M253.23,291.11l.55,.15c4.02-5.84,8.64-11.57,13.78-17.09l-25.54-6.89c1.67,7.36,2.78,14.63,3.32,21.7l7.89,2.13Z"/><circle class="cls-7" cx="282.38" cy="170.31" r="37.2"/><path class="cls-5" d="M301.58,97.32c-29.14-7.87-49.52,1.71-61.49,11.13-14.99,11.8-23.62,28.19-26.7,39.6-6.67,24.71-2.74,40.63,6.85,61.38l.79,1.7c6.53,14.09,14.62,31.55,19.66,50.79l30.7,8.28c14.05-14.1,29.84-25.13,42.58-34.03l1.49-1.04c18.73-13.1,30.15-24.88,36.82-49.59,4.86-18.02,5.99-72.91-50.7-88.2Zm-19.21,110.19c-20.51,0-37.2-16.69-37.2-37.2s16.69-37.2,37.2-37.2,37.2,16.69,37.2,37.2-16.69,37.2-37.2,37.2Z"/><path class="cls-4" d="M459.54,309.89h-15.7c-15.91-11.53-45.11-32.32-93.63-38.65-33.48-4.37-70.53,10.45-96.94,38.65h-11.55c-26.4-28.2-63.43-43.01-96.95-38.65h0c-48.51,6.33-77.71,27.13-93.62,38.65h-15.7c-2.68,0-4.78,3.71-4.78,8.44s2.1,8.44,4.78,8.44H459.54c2.68,0,4.78-3.71,4.78-8.44s-2.1-8.44-4.78-8.44Zm-109.96-33.85c42.19,5.51,69.48,22.29,85.93,33.85h-175.53c25.09-24.94,58.94-37.83,89.6-33.85Zm-204.19,0c30.68-3.98,64.53,8.92,89.61,33.85H59.46c16.45-11.56,43.74-28.34,85.93-33.85Zm313.34,45.88H36.25c-.3-.56-.75-1.75-.75-3.59s.45-3.04,.75-3.59H458.73c.3,.56,.75,1.75,.75,3.59s-.45,3.04-.75,3.59ZM302.85,92.64c-31.08-8.39-52.91,1.9-65.75,12-15.93,12.53-25.1,29.99-28.38,42.14-7.02,26-2.7,43.41,7.14,64.68l.79,1.71c6.94,14.99,14.81,31.98,19.72,51.32l.02,.1c2.28,9,4.16,23.11,4.16,23.11,0,0,1.32,7.87,2.36,10.6,.63,1.66,1.93,2.86,3.56,3.3,.44,.12,.89,.18,1.34,.18,1.2,0,2.4-.43,3.4-1.24h0c2.26-1.84,7.36-7.98,7.36-7.98,0,0,8.77-11.31,15.29-17.96,13.98-14.26,29.34-25,42.89-34.46l1.5-1.05c19.21-13.43,31.7-26.29,38.72-52.3,7.73-28.67-.12-79.57-54.12-94.15Zm-49.07,198.62l-.55-.15-7.89-2.13c-.53-7.07-1.64-14.34-3.32-21.7l25.54,6.89c-5.14,5.52-9.76,11.24-13.78,17.09Zm98.51-105.74c-6.67,24.71-18.08,36.49-36.82,49.59l-1.49,1.04c-12.74,8.91-28.53,19.94-42.58,34.03l-30.7-8.28c-5.05-19.23-13.14-36.69-19.66-50.79l-.79-1.7c-9.59-20.75-13.52-36.67-6.85-61.38,3.08-11.41,11.7-27.8,26.7-39.6,11.97-9.42,32.35-19,61.49-11.13,56.69,15.3,55.57,70.18,50.7,88.2Zm-69.91-57.59c-23.37,0-42.37,19.01-42.37,42.37s19.01,42.37,42.37,42.37,42.37-19.01,42.37-42.37-19.01-42.37-42.37-42.37Zm0,79.58c-20.51,0-37.2-16.69-37.2-37.2s16.69-37.2,37.2-37.2,37.2,16.69,37.2,37.2-16.69,37.2-37.2,37.2Z"/><path class="cls-6" d="M309.38,161.68c-.76-.1-1.38-.72-1.45-1.52-.45-5.17-5.06-11.91-11.2-13.72-.89-.26-1.39-1.19-1.13-2.08,.26-.89,1.18-1.39,2.08-1.13,7.69,2.27,13.04,10.4,13.58,16.64,.08,.92-.6,1.73-1.52,1.81-.12,.01-.24,0-.36,0Z"/></g><path class="cls-4" d="M85.67,378.59c-4.39,0-7.78,1.33-10.29,4.04l.36-1.81c.04-.21-.01-.42-.15-.58-.14-.17-.33-.26-.55-.26h-5.98c-.39,0-.71,.32-.71,.71v27.26s-2.91,22.24-2.91,22.24c-.02,.2,.04,.4,.17,.56,.13,.15,.33,.24,.53,.24h7.63c.39,0,.7-.31,.71-.7l.23-16.99c2.55,3.23,6.15,4.81,10.94,4.81,9.32,0,15.58-7.94,15.58-19.76s-6.26-19.76-15.58-19.76Zm1.19,28.28c-6.3,0-9.72-1.53-9.72-9.58s3.51-13.3,9.38-13.3,9.45,4.97,9.45,13.3-2.94,9.58-9.12,9.58Zm40.09-28.28c-3.86,0-8.1,.86-12.6,2.57-.27,.1-.46,.37-.46,.66v4.85c0,.25,.13,.48,.34,.61,.22,.13,.48,.14,.7,.01,3.53-1.93,7.37-2.9,11.36-2.9,6.34,.42,9.58,3.28,9.63,8.48h-7.66c-14.08,0-17.03,7.1-17.03,13.05,0,7.4,5.05,12.19,12.85,12.19,5.08,0,8.97-1.56,11.84-4.76v3.13c0,.39,.32,.71,.71,.71h5.97c.39,0,.71-.32,.71-.71v-20.71c0-11.55-5.35-17.17-16.37-17.17Zm-1.93,29.01c-4.69,0-6.87-.5-7.39-3.33,.06-3.8,1.61-5.61,10.31-5.61h4.67v.62c0,7.57-2.2,8.32-7.59,8.32Zm54-.02v8.89c0,.39-.32,.71-.71,.71h-6.17c-9.74,0-13.19-3.31-13.19-12.65l.32-19.01h-3.66c-.39,0-.71-.32-.71-.71v-4.65c0-.39,.32-.71,.71-.71h3.7l.31-8.35c.01-.38,.33-.68,.71-.68h6.31c.19,0,.38,.08,.51,.22,.14,.14,.2,.33,.2,.52l-.3,8.3h7.7c.39,0,.71,.32,.71,.71v4.65c0,.39-.32,.71-.71,.71h-7.74l-.32,15.1c0,5.68,1.04,6.26,5.47,6.26h6.17c.39,0,.71,.32,.71,.71Zm44.07-13.01l.66,21.88c0,.19-.07,.38-.2,.51-.13,.14-.32,.22-.51,.22h-7.57c-.19,0-.38-.08-.51-.22-.13-.14-.2-.33-.2-.52l.93-21.7c.2-4.07-.44-6.82-1.95-8.41-1.16-1.22-2.92-1.81-5.37-1.81-5.9,0-9.72,4.49-9.72,11.44l.66,20.49c0,.19-.07,.38-.2,.51s-.32,.22-.51,.22h-7.3c-.19,0-.37-.08-.5-.21-.14-.14-.21-.32-.2-.51l1.33-50.45c.01-.38,.32-.69,.71-.69h5.97c.19,0,.38,.08,.51,.22s.2,.32,.2,.52l-.59,17.52c2.82-3.34,6.43-4.97,10.97-4.97,8.76,0,13.38,5.52,13.38,15.97Zm40.67-20.91v-7.57c0-.39,.32-.71,.71-.71h5.98c.39,0,.71,.32,.71,.71v7.57c0,.39-.32,.71-.71,.71h-5.98c-.39,0-.71-.32-.71-.71Zm7.39,6.49l1,36.31c0,.19-.07,.38-.2,.51-.13,.14-.31,.21-.5,.21h-7.63c-.19,0-.37-.08-.5-.21s-.2-.32-.2-.51l.65-31.27h-14.95l.97,31.27c0,.19-.07,.38-.2,.51s-.32,.22-.51,.22h-7.97c-.19,0-.37-.08-.5-.21s-.2-.32-.2-.51l.65-31.27h-4.99c-.39,0-.71-.32-.71-.71v-4.31c0-.39,.32-.71,.71-.71h5v-1.82c0-7.77,3.81-11.85,12.34-13.24l6.01-.67c.2-.03,.4,.04,.55,.17,.15,.14,.23,.33,.23,.53v4.98c0,.33-.23,.62-.55,.69l-5.71,1.26c-3.56,.02-5.15,1.8-5.15,5.62v2.48h21.66c.38,0,.7,.3,.71,.69Zm45.73,14.39l.93,21.91c0,.19-.06,.38-.2,.52-.13,.14-.32,.22-.51,.22h-8.5c-.19,0-.38-.08-.51-.22s-.2-.33-.19-.53l1.26-22.04c0-6.76-1.93-9.54-6.66-9.54-8.31,0-10.05,5.86-10.05,10.78l1,20.81c0,.19-.06,.38-.2,.52-.13,.14-.32,.22-.51,.22h-8.3c-.19,0-.37-.08-.5-.21-.14-.14-.21-.32-.2-.51l.99-36.64c.01-.38,.32-.69,.71-.69h5.98c.39,0,.71,.32,.71,.71v2.95c2.96-2.19,6.55-4.19,11.04-4.19,8.61,0,13.22,5.36,13.72,15.94Zm46.42-29.22h-5.98c-.38,0-.69,.3-.71,.68l-.59,17.46c-2.56-3.27-6.17-4.86-10.98-4.86-9.17,0-15.58,8.12-15.58,19.76s6.41,19.76,15.58,19.76c4.76,0,8.36-1.56,10.91-4.77v3.13c0,.39,.32,.71,.71,.71h5.97c.39,0,.7-.31,.71-.7l.66-50.45c0-.19-.07-.37-.2-.5s-.31-.21-.5-.21Zm-18.65,19c5.62,0,8.46,4.23,8.65,12.89-.18,7.46-2.76,8.67-8.85,8.67s-8.29-2.17-9.25-8.19c0-8.37,3.53-13.37,9.45-13.37Zm49.54-5.73h-.03c-11.13,0-18.07,7.5-18.56,20.09,0,11.74,7.3,19,19.56,19.43,4.74,0,9.37-.96,13.75-2.85,.26-.11,.43-.37,.43-.66l-.13-8.23c0-.25-.14-.47-.35-.6-.21-.13-.48-.13-.69-.02-3.98,2.11-8.09,2.1-12.43,2.11h-.34c-7.9-.4-11.8-2.07-12.12-10.34h26.36c.39,0,.71-.32,.71-.71v-2.31c-.81-10.44-5.94-15.5-16.15-15.92Zm-10.23,12.34c.44-3.9,4.43-7.81,10.2-7.81,5.22,0,8.49,4.29,9.42,7.75l-19.62,.06Zm61.42-4.54c0,.26-.13,.49-.36,.62-.22,.13-.49,.12-.71,0-1.16-.7-2.28-.7-4.15-.7-5.83,0-8.79,4.05-8.79,12.04l1.32,18.07c.02,.2-.05,.39-.18,.53-.14,.14-.32,.23-.52,.23h-9.36c-.21,0-.41-.09-.54-.25-.13-.16-.19-.37-.15-.58,2.67-14.73,3.05-20.09,2.51-35.83,0-.19,.07-.38,.2-.52s.32-.22,.51-.22h5.51c.39,0,.71,.32,.71,.71v2.33c4.22-2.92,8.04-3.56,10.58-3.56,.91,0,1.65,.09,2.81,.35,.32,.07,.55,.35,.55,.68l.07,6.11Z"/></svg>