<?xml version="1.0" encoding="UTF-8"?><svg id="Logo_Icon" xmlns="http://www.w3.org/2000/svg" xmlns:xlink="http://www.w3.org/1999/xlink" viewBox="0 0 500 500"><defs><style>.cls-1{fill:#f0f7f8;}.cls-2{fill:#ffecd1;}.cls-3{fill:#b6dce1;}.cls-4{fill:#2d2a26;}.cls-5{fill:url(#radial-gradient);}.cls-6{fill:#d3eaed;opacity:.8;}.cls-7{fill:#dce3eb;opacity:.4;}</style><radialGradient id="radial-gradient" cx="282.24" cy="224.14" fx="282.24" fy="224.14" r="80.41" gradientUnits="userSpaceOnUse"><stop offset="0" stop-color="#ffa400"/><stop offset="1" stop-color="#ffa400"/></radialGradient></defs><path class="cls-3" d="M36.25,356.58c-.3,.56-.75,1.75-.75,3.59s.45,3.04,.75,3.59H458.73c.3-.56,.75-1.75,.75-3.59s-.45-3.04-.75-3.59H36.25Z"/><path class="cls-1" d="M235,351.73c-25.08-24.94-58.93-37.83-89.61-33.85-42.18,5.51-69.48,22.29-85.93,33.85H235Z"/><path class="cls-1" d="M435.51,351.73c-16.45-11.56-43.74-28.34-85.93-33.85-30.66-3.98-64.51,8.91-89.6,33.85h175.53Z"/><path class="cls-2" d="M253.23,332.96l.55,.15c4.02-5.84,8.64-11.57,13.78-17.09l-25.54-6.89c1.67,7.36,2.78,14.63,3.32,21.7l7.89,2.13Z"/><circle class="cls-7" cx="282.38" cy="212.15" r="37.2"/><path class="cls-5" d="M301.58,139.16c-29.14-7.87-49.52,1.71-61.49,11.13-14.99,11.8-23.62,28.19-26.7,39.6-6.67,24.71-2.74,40.63,6.85,61.38l.79,1.7c6.53,14.09,14.62,31.55,19.66,50.79l30.7,8.28c14.05-14.1,29.84-25.13,42.58-34.03l1.49-1.04c18.73-13.1,30.15-24.88,36.82-49.59,4.86-18.02,5.99-72.91-50.7-88.2Zm-19.21,110.19c-20.51,0-37.2-16.69-37.2-37.2s16.69-37.2,37.2-37.2,37.2,16.69,37.2,37.2-16.69,37.2-37.2,37.2Z"/><path class="cls-4" d="M459.54,351.73h-15.7c-15.91-11.53-45.11-32.32-93.63-38.65-33.48-4.37-70.53,10.45-96.94,38.65h-11.55c-26.4-28.2-63.43-43.01-96.95-38.65h0c-48.51,6.33-77.71,27.13-93.62,38.65h-15.7c-2.68,0-4.78,3.71-4.78,8.44s2.1,8.44,4.78,8.44H459.54c2.68,0,4.78-3.71,4.78-8.44s-2.1-8.44-4.78-8.44Zm-109.96-33.85c42.19,5.51,69.48,22.29,85.93,33.85h-175.53c25.09-24.94,58.94-37.83,89.6-33.85Zm-204.19,0c30.68-3.98,64.53,8.92,89.61,33.85H59.46c16.45-11.56,43.74-28.34,85.93-33.85Zm313.34,45.88H36.25c-.3-.56-.75-1.75-.75-3.59s.45-3.04,.75-3.59H458.73c.3,.56,.75,1.75,.75,3.59s-.45,3.04-.75,3.59Zm-155.88-229.28c-31.08-8.39-52.91,1.9-65.75,12-15.93,12.53-25.1,29.99-28.38,42.14-7.02,26-2.7,43.41,7.14,64.68l.79,1.71c6.94,14.99,14.81,31.98,19.72,51.32l.02,.1c2.28,9,4.16,23.11,4.16,23.11,0,0,1.32,7.87,2.36,10.6,.63,1.66,1.93,2.86,3.56,3.3,.44,.12,.89,.18,1.34,.18,1.2,0,2.4-.43,3.4-1.24h0c2.26-1.84,7.36-7.98,7.36-7.98,0,0,8.77-11.31,15.29-17.96,13.98-14.26,29.34-25,42.89-34.46l1.5-1.05c19.21-13.43,31.7-26.29,38.72-52.3,7.73-28.67-.12-79.57-54.12-94.15Zm-49.07,198.62l-.55-.15-7.89-2.13c-.53-7.07-1.64-14.34-3.32-21.7l25.54,6.89c-5.14,5.52-9.76,11.24-13.78,17.09Zm98.51-105.74c-6.67,24.71-18.08,36.49-36.82,49.59l-1.49,1.04c-12.74,8.91-28.53,19.94-42.58,34.03l-30.7-8.28c-5.05-19.23-13.14-36.69-19.66-50.79l-.79-1.7c-9.59-20.75-13.52-36.67-6.85-61.38,3.08-11.41,11.7-27.8,26.7-39.6,11.97-9.42,32.35-19,61.49-11.13,56.69,15.3,55.57,70.18,50.7,88.2Zm-69.91-57.59c-23.37,0-42.37,19.01-42.37,42.37s19.01,42.37,42.37,42.37,42.37-19.01,42.37-42.37-19.01-42.37-42.37-42.37Zm0,79.58c-20.51,0-37.2-16.69-37.2-37.2s16.69-37.2,37.2-37.2,37.2,16.69,37.2,37.2-16.69,37.2-37.2,37.2Z"/><path class="cls-6" d="M309.38,203.52c-.76-.1-1.38-.72-1.45-1.52-.45-5.17-5.06-11.91-11.2-13.72-.89-.26-1.39-1.19-1.13-2.08,.26-.89,1.18-1.39,2.08-1.13,7.69,2.27,13.04,10.4,13.58,16.64,.08,.92-.6,1.73-1.52,1.81-.12,.01-.24,0-.36,0Z"/></svg>