<svg width="165" height="55" viewBox="0 0 165 55" fill="none" xmlns="http://www.w3.org/2000/svg">
<path fill-rule="evenodd" clip-rule="evenodd" d="M74.7933 32.2849C75.077 32.5666 75.2364 32.9486 75.2364 33.347C75.2364 33.7453 75.077 34.1273 74.7933 34.409L74.1668 35.0309H91.0732L90.4467 34.409C90.3022 34.2704 90.1869 34.1047 90.1076 33.9214C90.0283 33.7381 89.9865 33.541 89.9848 33.3416C89.983 33.1421 90.0213 32.9443 90.0974 32.7597C90.1735 32.575 90.2859 32.4073 90.428 32.2663C90.57 32.1252 90.739 32.0137 90.925 31.9382C91.111 31.8626 91.3102 31.8246 91.5112 31.8263C91.7121 31.8281 91.9107 31.8695 92.0953 31.9482C92.2799 32.027 92.4469 32.1414 92.5865 32.2849L95.7962 35.4696C95.9369 35.6091 96.0485 35.7748 96.1246 35.9571C96.2008 36.1395 96.24 36.335 96.24 36.5324C96.24 36.7298 96.2008 36.9253 96.1246 37.1076C96.0485 37.29 95.9369 37.4557 95.7962 37.5952L92.5865 40.7814C92.3011 41.055 91.9188 41.2064 91.522 41.203C91.1253 41.1996 90.7457 41.0416 90.4651 40.7631C90.1846 40.4846 90.0254 40.1078 90.022 39.7139C90.0185 39.32 90.1711 38.9406 90.4467 38.6573L91.0732 38.0354H74.1668L74.7933 38.6573C74.9378 38.7958 75.0531 38.9616 75.1324 39.1449C75.2117 39.3282 75.2535 39.5253 75.2552 39.7247C75.257 39.9242 75.2187 40.122 75.1426 40.3066C75.0665 40.4912 74.9541 40.659 74.812 40.8C74.67 40.9411 74.501 41.0526 74.315 41.1281C74.129 41.2037 73.9298 41.2417 73.7288 41.2399C73.5279 41.2382 73.3293 41.1968 73.1447 41.118C72.9601 41.0393 72.7931 40.9249 72.6535 40.7814L69.4438 37.5967C69.3031 37.4572 69.1915 37.2915 69.1154 37.1092C69.0392 36.9268 69 36.7313 69 36.5339C69 36.3365 69.0392 36.141 69.1154 35.9586C69.1915 35.7763 69.3031 35.6106 69.4438 35.4711L72.6535 32.2849C72.9373 32.0033 73.3221 31.8451 73.7234 31.8451C74.1247 31.8451 74.5095 32.0033 74.7933 32.2849V32.2849ZM87.1599 14C87.5305 14 87.8883 14.1351 88.1652 14.3796C88.4422 14.6241 88.6192 14.961 88.6625 15.3265L88.6731 15.5022V20.5151C89.4921 20.1301 90.3969 19.9602 91.3009 20.0216C92.205 20.0829 93.0781 20.3735 93.8366 20.8655C94.5952 21.3575 95.214 22.0345 95.6337 22.8317C96.0535 23.6289 96.2601 24.5197 96.234 25.4188C96.2078 26.3179 95.9497 27.1954 95.4844 27.9672C95.019 28.7391 94.3619 29.3795 93.576 29.8272C92.7901 30.275 91.9016 30.515 90.9955 30.5245C90.0894 30.534 89.196 30.3126 88.4007 29.8814C88.2256 30.1318 87.9777 30.3234 87.6901 30.4305C87.4025 30.5377 87.0889 30.5553 86.7909 30.4811C86.493 30.4068 86.2249 30.2443 86.0224 30.015C85.8198 29.7858 85.6924 29.5008 85.6572 29.1979L85.6466 29.0221V15.5022C85.6466 15.1038 85.806 14.7217 86.0898 14.44C86.3736 14.1583 86.7585 14 87.1599 14V14ZM76.5669 14C77.0556 13.9999 77.5347 14.1356 77.9497 14.3918C78.3648 14.648 78.6993 15.0145 78.9155 15.4496L79.0078 15.6584L84.0304 28.4783C84.1672 28.8348 84.1622 29.2297 84.0164 29.5827C83.8707 29.9357 83.5951 30.2205 83.2455 30.3791C82.896 30.5378 82.4988 30.5585 82.1344 30.437C81.7701 30.3156 81.466 30.0611 81.2838 29.7251L81.2096 29.5659L79.8189 26.0177H73.3148L71.9241 29.5659C71.784 29.9226 71.5119 30.2128 71.1635 30.3771C70.8151 30.5414 70.4166 30.5674 70.0495 30.4498C69.6825 30.3323 69.3744 30.08 69.1885 29.7445C69.0025 29.4091 68.9525 29.0158 69.0489 28.645L69.1033 28.4783L74.1259 15.6584C74.3169 15.1699 74.6522 14.7502 75.0878 14.4542C75.5234 14.1583 76.039 13.9999 76.5669 14V14ZM90.9431 23.0133C90.341 23.0133 89.7637 23.2507 89.338 23.6732C88.9123 24.0958 88.6731 24.669 88.6731 25.2666C88.6731 25.8642 88.9123 26.4373 89.338 26.8599C89.7637 27.2825 90.341 27.5199 90.9431 27.5199C91.5451 27.5199 92.1225 27.2825 92.5481 26.8599C92.9738 26.4373 93.213 25.8642 93.213 25.2666C93.213 24.669 92.9738 24.0958 92.5481 23.6732C92.1225 23.2507 91.5451 23.0133 90.9431 23.0133ZM76.5669 17.715L74.4921 23.0133H78.6431L76.5669 17.715Z" fill="#292929"/>
<path d="M149.643 31.5117C149.49 31.6183 146.31 34.9833 146.31 37.345C146.31 39.835 147.892 41.425 149.643 41.5117C151.153 41.585 152.977 40.0267 152.977 37.345C152.977 34.845 149.797 31.6183 149.643 31.5117ZM132.287 41.5117C132.917 42.1417 133.753 42.4883 134.643 42.4883C135.533 42.4883 136.37 42.1417 137 41.5117L148.667 29.845L147.488 28.6667L134.643 15.8217L130.822 12L128.465 14.3567L132.287 18.1783L122.977 27.4883C122.347 28.1183 122 28.955 122 29.845C122 30.735 122.347 31.5717 122.977 32.2017L132.287 41.5117ZM134.643 20.535L143.953 29.845H125.333L134.643 20.535Z" fill="#292929"/>
<path d="M25.0242 33.591L31.7569 15.9264C32.2057 14.7474 33.8779 14.6938 34.4397 15.7654L34.5116 15.9264L42.5806 37.0996C42.7062 37.4369 42.6938 37.8075 42.5461 38.1364C42.3983 38.4653 42.1262 38.7278 41.7848 38.8707C41.4435 39.0136 41.0585 39.0263 40.7078 38.9061C40.3571 38.7859 40.067 38.5419 39.8963 38.2235L39.8274 38.0724L37.7562 32.6478H28.5079L26.3927 38.1825L26.334 38.2941L26.227 38.4466L26.114 38.5736L25.9893 38.6824L25.8676 38.7671L25.7942 38.8123L25.671 38.873L25.5185 38.9294L25.3645 38.969L25.1694 38.9972L25.0124 38.9986L24.9083 38.9916L24.7572 38.969L24.5372 38.9069L24.436 38.8645L24.2893 38.7868L24.1265 38.6739L23.9915 38.5525L23.8976 38.4452L23.8082 38.3181L23.7289 38.1741L22.6347 35.4731H17.228L16.1675 38.0992C16.0373 38.4217 15.7888 38.687 15.4689 38.8447C15.149 39.0024 14.7801 39.0416 14.4322 38.9549L14.2694 38.904C13.9341 38.7788 13.6582 38.5393 13.4943 38.231C13.3305 37.9228 13.2899 37.5674 13.3805 37.2323L13.4333 37.077L18.5657 24.3739C19.0278 23.2303 20.6486 23.1766 21.2207 24.2101L21.2999 24.3739L25.0242 33.5924V33.591ZM19.9328 28.7805L18.3692 32.6478H21.495L19.9328 28.7791V28.7805ZM33.1342 20.5123L29.5845 29.8225H36.681L33.1342 20.5123Z" fill="#292929"/>
</svg>
