<?xml version="1.0" encoding="UTF-8"?><svg id="Layer_1" xmlns="http://www.w3.org/2000/svg" viewBox="0 0 40 40"><defs><style>.cls-1{fill:#292929;}</style></defs><path class="cls-1" d="M28.92,24.04c1.04-1.04,1.08-2.68,.1-3.66L15.09,6.46c-.34-.34-.89-.34-1.23,0l-.65,.65c-.34,.34-.34,.89,0,1.23l2.79,2.79c-.19,.12-.37,.27-.54,.44L7.16,19.87c-1.29,1.29-1.29,3.38,0,4.67l8.3,8.3c1.29,1.29,3.38,1.29,4.67,0l8.74-8.74s.02-.03,.04-.05h0Zm-2.33-2.33c.27,.27,.27,.71,0,.98l-.12,.12-17.35-.02-.1-.1c-.27-.27-.27-.71,0-.98l8.3-8.3c.27-.27,.71-.27,.98,0l8.3,8.3Zm7.21,7.53c.07,1.05-.77,2.02-2,2.17s-2.28-.58-2.46-1.62c-.09-.51-.21-.93,.12-2.09,.56-1.94,1.41-3.83,1.41-3.83,0,0,1.28,1.63,2.29,3.38,.61,1.05,.59,1.48,.62,2Z"/></svg>