<svg width="55" height="55" viewBox="0 0 55 55" fill="none" xmlns="http://www.w3.org/2000/svg">
<path d="M39.6433 31.5117C39.49 31.6183 36.31 34.9833 36.31 37.345C36.31 39.835 37.8917 41.425 39.6433 41.5117C41.1533 41.585 42.9767 40.0267 42.9767 37.345C42.9767 34.845 39.7967 31.6183 39.6433 31.5117ZM22.2867 41.5117C22.9167 42.1417 23.7533 42.4883 24.6433 42.4883C25.5333 42.4883 26.37 42.1417 27 41.5117L38.6667 29.845L37.4883 28.6667L24.6433 15.8217L20.8217 12L18.465 14.3567L22.2867 18.1783L12.9767 27.4883C12.3467 28.1183 12 28.955 12 29.845C12 30.735 12.3467 31.5717 12.9767 32.2017L22.2867 41.5117ZM24.6433 20.535L33.9533 29.845H15.3333L24.6433 20.535Z" fill="#292929"/>
</svg>
