<?xml version="1.0" encoding="UTF-8"?><svg id="Layer_1" xmlns="http://www.w3.org/2000/svg" viewBox="0 0 40 40"><defs><style>.cls-1{fill:#292929;}</style></defs><path class="cls-1" d="M15.4,16.19c-.08,0-.16,.05-.18,.13l-.42,1.12c-.02,.06-.01,.13,.02,.18,.04,.05,.1,.09,.16,.09h.84c.06,0,.12-.03,.16-.08,.04-.05,.05-.12,.02-.18l-.42-1.12c-.03-.08-.1-.13-.18-.13Z"/><path class="cls-1" d="M12.38,28.99c-.42,0-.76,.34-.76,.76s.34,.76,.76,.76H29.02c.03,.25,.24,.44,.49,.44h.51c.28,0,.51-.23,.51-.51v-2.55c0-.07,.05-.12,.12-.12h1.22c.07,0,.12-.05,.12-.12V8.2c0-1.12-.91-2.03-2.03-2.03H12.11c-2.26,0-4.09,1.83-4.09,4.09V29.49h0s0,.08,0,.12v.12c0,2.26,1.83,4.09,4.09,4.09H31.47c.28,0,.51-.23,.51-.51v-1.11c0-.28-.23-.51-.51-.51H12.11c-1.08,0-1.96-.88-1.96-1.96s.88-1.96,1.96-1.96H28.88c.07,0,.12,.05,.12,.12v1.09H12.38Zm5.86-8.58c-.1,.14-.26,.23-.43,.23h-.74c-.16,0-.3-.1-.36-.25l-.58-1.49h-1.48s-.57,1.49-.57,1.49c-.06,.15-.2,.25-.36,.25h-.73c-.17,0-.33-.08-.42-.22-.1-.14-.12-.32-.05-.48l2.15-5.46c.08-.2,.27-.33,.48-.33h.53c.21,0,.4,.13,.48,.33l2.14,5.47c.06,.16,.04,.34-.05,.48Zm4.14-2.91c0,.34-.28,.62-.62,.62h-2.02c-.34,0-.62-.28-.62-.62v-.23c0-.34,.28-.62,.62-.62h2.02c.34,0,.62,.28,.62,.62v.23Zm5.72,2.62c0,.24-.2,.43-.43,.43h-3.74c-.24,0-.43-.2-.43-.43v-.5c0-.09,.03-.17,.07-.24l2.45-3.71h-2c-.24,0-.43-.19-.43-.43v-.57c0-.24,.2-.43,.43-.43h3.57c.24,0,.43,.2,.43,.43v.49c0,.09-.03,.17-.07,.24l-2.45,3.71h2.17c.24,0,.43,.19,.43,.43v.57Z"/></svg>