<?xml version="1.0" encoding="UTF-8"?><svg id="Layer_1" xmlns="http://www.w3.org/2000/svg" viewBox="0 0 40 40"><defs><style>.cls-1{fill:#292929;}</style></defs><path class="cls-1" d="M18.12,8.46h3.76c.62,0,1.13,.5,1.13,1.13v7.89h4.12c.84,0,1.25,1.01,.66,1.6l-7.14,7.15c-.35,.35-.93,.35-1.28,0l-7.15-7.15c-.59-.59-.17-1.6,.66-1.6h4.12v-7.89c0-.62,.5-1.13,1.13-1.13Zm13.9,17.51v4.58c0,.54-.5,.98-1.13,.98H9.1c-.62,0-1.13-.44-1.13-.98v-4.58c0-.54,.5-.98,1.13-.98h6.89l2.3,2c.94,.82,2.47,.82,3.41,0l2.3-2h6.89c.62,0,1.13,.44,1.13,.98Zm-2.81,4.26c0-.32-.26-.57-.57-.57s-.57,.26-.57,.57,.26,.57,.57,.57,.57-.26,.57-.57Zm1.84,0c0-.32-.26-.57-.57-.57s-.57,.26-.57,.57,.26,.57,.57,.57,.57-.26,.57-.57Z"/></svg>