<?xml version="1.0" encoding="UTF-8"?><svg id="Layer_1" xmlns="http://www.w3.org/2000/svg" viewBox="0 0 40 40"><defs><style>.cls-1{fill:#292929;}</style></defs><path class="cls-1" d="M18.39,10.58c-.26-.66-.88-1.08-1.59-1.08h-.59c-.7,0-1.33,.42-1.58,1.08L6.8,30.45c-.19,.49-.13,1.04,.16,1.47s.79,.69,1.31,.69h.38c.65,0,1.24-.41,1.48-1.01l2.16-5.59c.08-.22,.3-.36,.53-.36h7.22c.23,0,.44,.14,.53,.36l2.19,5.6c.24,.61,.82,1.01,1.48,1.01h.45c.52,0,1.01-.26,1.31-.69,.3-.43,.36-.98,.17-1.47l-7.79-19.87Zm.47,11.4c-.11,.15-.28,.24-.47,.24h-3.8c-.19,0-.36-.09-.47-.24-.11-.16-.13-.35-.06-.52l1.99-5.25c.16-.45,.31-.88,.44-1.31,.16,.48,.31,.92,.46,1.31l1.97,5.25c.07,.18,.04,.37-.06,.52Zm14.33-11.15v.36c0,.43-.35,.77-.77,.77h-1.91v1.91c0,.43-.35,.77-.77,.77h-.36c-.43,0-.77-.35-.77-.77v-1.91h-1.91c-.43,0-.77-.35-.77-.77v-.36c0-.43,.35-.77,.77-.77h1.91v-1.91c0-.43,.35-.77,.77-.77h.36c.43,0,.77,.35,.77,.77v1.91h1.91c.43,0,.77,.35,.77,.77Zm-7.16,6.51v-.36c0-.43,.35-.77,.77-.77h5.72c.43,0,.77,.35,.77,.77v.36c0,.43-.35,.77-.77,.77h-5.72c-.43,0-.77-.35-.77-.77Z"/></svg>