<?xml version="1.0" encoding="UTF-8"?><svg id="Layer_1" xmlns="http://www.w3.org/2000/svg" viewBox="0 0 40 40"><defs><style>.cls-1{fill:#292929;}</style></defs><path class="cls-1" d="M14.8,10.17c-.24-.61-.81-1-1.47-1h-.55c-.65,0-1.23,.39-1.47,1L4.08,28.55c-.18,.45-.12,.96,.15,1.36s.73,.64,1.21,.64h.36c.6,0,1.15-.38,1.37-.94l2-5.17c.08-.2,.27-.33,.49-.33h6.68c.22,0,.41,.13,.49,.33l2.03,5.18c.22,.57,.76,.93,1.37,.93h.42c.49,0,.94-.24,1.21-.64,.27-.4,.33-.91,.15-1.36L14.8,10.17Zm.44,10.55c-.1,.14-.26,.23-.43,.23h-3.52c-.17,0-.33-.08-.43-.23-.1-.14-.12-.32-.06-.48l1.84-4.85c.15-.41,.28-.82,.41-1.21,.14,.44,.29,.85,.43,1.21l1.82,4.85c.06,.16,.04,.34-.06,.48Zm19.31-5.3c-.97-.89-2.44-1.34-4.38-1.34-.94,0-1.88,.12-2.81,.36-.58,.15-1.15,.34-1.68,.57-.76,.32-1.11,1.16-.81,1.91,.24,.59,.78,.96,1.37,.96,.19,0,.37-.04,.54-.11,1.19-.49,2.28-.74,3.25-.74s1.66,.23,2.07,.68c.42,.47,.63,1.23,.63,2.29v.43l-2.07,.07c-5.22,.16-7.87,1.96-7.87,5.35,0,1.58,.49,2.82,1.45,3.7,.95,.86,2.26,1.3,3.89,1.3,1.2,0,2.22-.19,3.04-.55,.62-.28,1.23-.74,1.84-1.37l.1,.49c.14,.67,.75,1.16,1.43,1.16,.81,0,1.47-.66,1.47-1.47v-9.42c0-1.92-.5-3.35-1.48-4.25Zm-1.87,7.7v.82c0,1.28-.35,2.23-1.06,2.92-.72,.69-1.71,1.03-3.01,1.03-.77,0-1.37-.18-1.77-.52-.39-.33-.57-.82-.57-1.5,0-.88,.32-1.5,.96-1.9,.73-.45,1.97-.71,3.7-.77l1.75-.07Z"/></svg>