<?xml version="1.0" encoding="UTF-8"?><svg id="Layer_1" xmlns="http://www.w3.org/2000/svg" viewBox="0 0 40 40"><defs><style>.cls-1{fill:none;}.cls-2{fill:#292929;}.cls-3{fill:#eddd6e;opacity:.8;}</style></defs><path class="cls-1" d="M18.06,19.91c-.11-.11-.25-.16-.39-.16s-.28,.05-.39,.16l-1.5,1.52c-.21,.22-.21,.56,0,.78l4.91,4.96c.11,.11,.25,.16,.39,.16s.28-.05,.39-.16l1.5-1.52c.21-.22,.21-.56,0-.78l-4.91-4.96Z"/><path class="cls-1" d="M23.24,11.62c-.11-.11-.25-.16-.39-.16s-.28,.05-.39,.16l-4.11,4.15c-.21,.22-.21,.56,0,.78l7.95,8.02c.11,.11,.25,.16,.39,.16s.28-.05,.39-.16l4.11-4.15c.21-.22,.21-.56,0-.78l-7.95-8.03Z"/><path class="cls-3" d="M15.48,25.54c-.11-.11-.25-.16-.39-.16-.14,0-.29,.05-.39,.16l-3.14,3.19c-.34,.35-.1,.94,.39,.94h3.77c.15,0,.29-.06,.39-.17l1.26-1.29c.21-.22,.21-.56,0-.77l-1.88-1.9Z"/><path class="cls-2" d="M34.79,19.85L23.03,7.97s-.05-.05-.09-.06c-.03-.01-.07-.02-.1-.02s-.07,0-.1,.02c-.03,.01-.06,.03-.09,.06l-7.92,8c-.05,.05-.08,.12-.08,.19,0,.07,.03,.14,.08,.19h0s.94,.96,.94,.96c.21,.22,.21,.56,0,.78l-3.5,3.53c-.05,.05-.08,.12-.08,.19,0,.07,.03,.14,.08,.19h0s.93,.94,.93,.94c.21,.21,.21,.56,0,.78l-5.62,5.69c-.18,.18-.42,.28-.67,.28h-.47c-.67,0-1.21,.54-1.21,1.21s.55,1.21,1.21,1.21h10.27c.2-.08,.38-.16,.58-.24l1.97-2.01c.11-.11,.25-.17,.39-.17s.28,.05,.39,.16l.95,.96s.05,.04,.09,.06c.03,.01,.07,.02,.1,.02s.07,0,.1-.02c.03-.01,.06-.03,.09-.06l3.49-3.54c.11-.11,.25-.16,.39-.16s.28,.05,.39,.16l.94,.95s.05,.05,.09,.06c.03,.01,.07,.02,.1,.02s.07,0,.1-.02c.03-.01,.06-.03,.09-.06l7.92-8c.11-.1,.11-.27,0-.38Zm-17.42,8.37l-1.26,1.29c-.1,.11-.25,.17-.39,.17h-3.77c-.49,0-.74-.59-.39-.94l3.14-3.19c.11-.11,.25-.16,.39-.16,.14,0,.28,.05,.39,.16l1.88,1.9c.21,.21,.21,.56,0,.77Zm5.61-2.57l-1.5,1.52c-.11,.11-.25,.16-.39,.16s-.28-.05-.39-.16l-4.91-4.96c-.21-.22-.21-.56,0-.78l1.5-1.52c.11-.11,.25-.16,.39-.16s.28,.05,.39,.16l4.91,4.96c.21,.22,.21,.56,0,.78Zm8.2-5.22l-4.11,4.15c-.11,.11-.25,.16-.39,.16s-.28-.05-.39-.16l-7.95-8.02c-.21-.22-.21-.56,0-.78l4.11-4.15c.11-.11,.25-.16,.39-.16s.28,.05,.39,.16l7.95,8.03c.21,.22,.21,.56,0,.78Z"/></svg>