<svg width="55" height="55" viewBox="0 0 55 55" fill="none" xmlns="http://www.w3.org/2000/svg">
<path fill-rule="evenodd" clip-rule="evenodd" d="M19.7933 32.2849C20.077 32.5666 20.2364 32.9486 20.2364 33.347C20.2364 33.7453 20.077 34.1273 19.7933 34.409L19.1668 35.0309H36.0732L35.4467 34.409C35.3022 34.2704 35.1869 34.1047 35.1076 33.9214C35.0283 33.7381 34.9865 33.541 34.9848 33.3416C34.983 33.1421 35.0213 32.9443 35.0974 32.7597C35.1735 32.575 35.2859 32.4073 35.428 32.2663C35.57 32.1252 35.739 32.0137 35.925 31.9382C36.111 31.8626 36.3102 31.8246 36.5112 31.8263C36.7121 31.8281 36.9107 31.8695 37.0953 31.9482C37.2799 32.027 37.4469 32.1414 37.5865 32.2849L40.7962 35.4696C40.9369 35.6091 41.0485 35.7748 41.1246 35.9571C41.2008 36.1395 41.24 36.335 41.24 36.5324C41.24 36.7298 41.2008 36.9253 41.1246 37.1076C41.0485 37.29 40.9369 37.4557 40.7962 37.5952L37.5865 40.7814C37.3011 41.055 36.9188 41.2064 36.522 41.203C36.1253 41.1996 35.7457 41.0416 35.4651 40.7631C35.1846 40.4846 35.0254 40.1078 35.022 39.7139C35.0185 39.32 35.1711 38.9406 35.4467 38.6573L36.0732 38.0354H19.1668L19.7933 38.6573C19.9378 38.7958 20.0531 38.9616 20.1324 39.1449C20.2117 39.3282 20.2535 39.5253 20.2552 39.7247C20.257 39.9242 20.2187 40.122 20.1426 40.3066C20.0665 40.4912 19.9541 40.659 19.812 40.8C19.67 40.9411 19.501 41.0526 19.315 41.1281C19.129 41.2037 18.9298 41.2417 18.7288 41.2399C18.5279 41.2382 18.3293 41.1968 18.1447 41.118C17.9601 41.0393 17.7931 40.9249 17.6535 40.7814L14.4438 37.5967C14.3031 37.4572 14.1915 37.2915 14.1154 37.1092C14.0392 36.9268 14 36.7313 14 36.5339C14 36.3365 14.0392 36.141 14.1154 35.9586C14.1915 35.7763 14.3031 35.6106 14.4438 35.4711L17.6535 32.2849C17.9373 32.0033 18.3221 31.8451 18.7234 31.8451C19.1247 31.8451 19.5095 32.0033 19.7933 32.2849V32.2849ZM32.1599 14C32.5305 14 32.8883 14.1351 33.1652 14.3796C33.4422 14.6241 33.6192 14.961 33.6625 15.3265L33.6731 15.5022V20.5151C34.4921 20.1301 35.3969 19.9602 36.3009 20.0216C37.205 20.0829 38.0781 20.3735 38.8366 20.8655C39.5952 21.3575 40.214 22.0345 40.6337 22.8317C41.0535 23.6289 41.2601 24.5197 41.234 25.4188C41.2078 26.3179 40.9497 27.1954 40.4844 27.9672C40.019 28.7391 39.3619 29.3795 38.576 29.8272C37.7901 30.275 36.9016 30.515 35.9955 30.5245C35.0894 30.534 34.196 30.3126 33.4007 29.8814C33.2256 30.1318 32.9777 30.3234 32.6901 30.4305C32.4025 30.5377 32.0889 30.5553 31.7909 30.4811C31.493 30.4068 31.2249 30.2443 31.0224 30.015C30.8198 29.7858 30.6924 29.5008 30.6572 29.1979L30.6466 29.0221V15.5022C30.6466 15.1038 30.806 14.7217 31.0898 14.44C31.3736 14.1583 31.7585 14 32.1599 14V14ZM21.5669 14C22.0556 13.9999 22.5347 14.1356 22.9497 14.3918C23.3648 14.648 23.6993 15.0145 23.9155 15.4496L24.0078 15.6584L29.0304 28.4783C29.1672 28.8348 29.1622 29.2297 29.0164 29.5827C28.8707 29.9357 28.5951 30.2205 28.2455 30.3791C27.896 30.5378 27.4988 30.5585 27.1344 30.437C26.7701 30.3156 26.466 30.0611 26.2838 29.7251L26.2096 29.5659L24.8189 26.0177H18.3148L16.9241 29.5659C16.784 29.9226 16.5119 30.2128 16.1635 30.3771C15.8151 30.5414 15.4166 30.5674 15.0495 30.4498C14.6825 30.3323 14.3744 30.08 14.1885 29.7445C14.0025 29.4091 13.9525 29.0158 14.0489 28.645L14.1033 28.4783L19.1259 15.6584C19.3169 15.1699 19.6522 14.7502 20.0878 14.4542C20.5234 14.1583 21.039 13.9999 21.5669 14V14ZM35.9431 23.0133C35.341 23.0133 34.7637 23.2507 34.338 23.6732C33.9123 24.0958 33.6731 24.669 33.6731 25.2666C33.6731 25.8642 33.9123 26.4373 34.338 26.8599C34.7637 27.2825 35.341 27.5199 35.9431 27.5199C36.5451 27.5199 37.1225 27.2825 37.5481 26.8599C37.9738 26.4373 38.213 25.8642 38.213 25.2666C38.213 24.669 37.9738 24.0958 37.5481 23.6732C37.1225 23.2507 36.5451 23.0133 35.9431 23.0133ZM21.5669 17.715L19.4921 23.0133H23.6431L21.5669 17.715Z" fill="#292929"/>
</svg>
