<?xml version="1.0" encoding="UTF-8"?><svg id="Layer_1" xmlns="http://www.w3.org/2000/svg" viewBox="0 0 40 40"><defs><style>.cls-1{fill:#292929;}</style></defs><path class="cls-1" d="M15.69,7.94c-.18-.46-.61-.75-1.1-.75h-.41c-.49,0-.92,.29-1.1,.75l-5.44,13.81c-.13,.34-.09,.72,.11,1.02s.55,.48,.91,.48h.27c.45,0,.86-.28,1.03-.7l1.5-3.88c.06-.15,.21-.25,.37-.25h5.02c.16,0,.31,.1,.37,.25l1.52,3.89c.17,.43,.57,.7,1.03,.7h.31c.36,0,.7-.18,.91-.48,.21-.3,.25-.68,.12-1.02L15.69,7.94Zm.33,7.92c-.07,.11-.19,.17-.32,.17h-2.64c-.13,0-.25-.06-.32-.17-.07-.11-.09-.24-.04-.36l1.38-3.65c.11-.31,.21-.61,.3-.91,.11,.33,.22,.64,.32,.91l1.37,3.65c.05,.12,.03,.25-.04,.36Zm14.5-3.98c-.73-.67-1.83-1.01-3.29-1.01-.7,0-1.41,.09-2.11,.27-.44,.11-.86,.26-1.26,.43-.57,.24-.84,.87-.61,1.43,.18,.44,.59,.72,1.03,.72,.14,0,.28-.03,.41-.08,.89-.37,1.71-.56,2.44-.56s1.25,.17,1.55,.51c.32,.35,.48,.93,.48,1.72v.33l-1.55,.05c-3.92,.12-5.91,1.47-5.91,4.02,0,1.19,.37,2.12,1.09,2.78,.71,.65,1.7,.98,2.92,.98,.9,0,1.67-.14,2.28-.41,.46-.21,.93-.55,1.38-1.03l.08,.36c.11,.51,.56,.87,1.08,.87,.61,0,1.1-.49,1.1-1.1v-7.08c0-1.44-.37-2.52-1.11-3.19Zm-1.41,5.78v.62c0,.96-.26,1.67-.8,2.19-.54,.52-1.28,.77-2.26,.77-.58,0-1.03-.13-1.33-.39-.29-.25-.43-.62-.43-1.13,0-.66,.24-1.12,.72-1.43,.55-.34,1.48-.53,2.78-.58l1.32-.06Zm5.87,12.18l-3.07,2.72c-.6,.53-1.59,.14-1.59-.63v-1.08H9.67v1.08c0,.77-.99,1.16-1.59,.63l-3.07-2.72c-.38-.34-.38-.91,0-1.25l3.07-2.72c.6-.53,1.59-.14,1.59,.63v1.08H30.33v-1.08c0-.77,.99-1.16,1.59-.63l3.07,2.72c.38,.34,.38,.91,0,1.25Z"/></svg>