<?xml version="1.0" encoding="UTF-8"?><svg id="Layer_1" xmlns="http://www.w3.org/2000/svg" viewBox="0 0 40 40"><defs><style>.cls-1{fill:#292929;}</style></defs><path class="cls-1" d="M33.56,13.91h-15.95c-.76,0-1.39-.62-1.39-1.39v-1.28c0-.76,.62-1.39,1.39-1.39h15.95c.76,0,1.39,.62,1.39,1.39v1.28c0,.76-.62,1.39-1.39,1.39Zm1.39,6.73v-1.28c0-.76-.62-1.39-1.39-1.39h-15.95c-.76,0-1.39,.62-1.39,1.39v1.28c0,.76,.62,1.39,1.39,1.39h15.95c.76,0,1.39-.62,1.39-1.39Zm0,8.12v-1.28c0-.76-.62-1.39-1.39-1.39h-15.95c-.76,0-1.39,.62-1.39,1.39v1.28c0,.76,.62,1.39,1.39,1.39h15.95c.76,0,1.39-.62,1.39-1.39Zm-22.86-2.67h-1.2V13.91h1.2c.85,0,1.29-1.13,.7-1.81l-3.03-3.49c-.38-.44-1.01-.44-1.39,0l-3.03,3.49c-.59,.68-.16,1.81,.7,1.81h1.2v12.19h-1.2c-.85,0-1.29,1.13-.7,1.81l3.03,3.49c.38,.44,1.01,.44,1.39,0l3.03-3.49c.59-.68,.16-1.81-.7-1.81Z"/></svg>