<?xml version="1.0" encoding="UTF-8"?><svg id="Layer_1" xmlns="http://www.w3.org/2000/svg" viewBox="0 0 40 40"><defs><style>.cls-1{fill:#292929;fill-rule:evenodd;}</style></defs><path class="cls-1" d="M28.75,18.21c-3.79,0-6.87,3.09-6.87,6.9s3.08,6.9,6.87,6.9,6.87-3.09,6.87-6.9-3.08-6.9-6.87-6.9Zm.62,9.41c0,.17-.07,.33-.18,.44-.12,.12-.28,.18-.44,.18s-.32-.07-.44-.18c-.12-.12-.18-.28-.18-.44v-1.88h-1.87c-.17,0-.32-.07-.44-.18-.12-.12-.18-.28-.18-.44s.07-.33,.18-.44c.12-.12,.28-.18,.44-.18h1.87v-1.88c0-.17,.07-.33,.18-.44,.12-.12,.28-.18,.44-.18s.32,.07,.44,.18c.12,.12,.18,.28,.18,.44v1.88h1.87c.17,0,.32,.07,.44,.18,.12,.12,.18,.28,.18,.44s-.07,.33-.18,.44c-.12,.12-.28,.18-.44,.18h-1.87v1.88ZM9.93,8.59c-.38-.39-.91-.6-1.45-.6h-2.04c-.54,0-1.07,.22-1.45,.6-.38,.39-.6,.91-.6,1.46V28.59c0,.55,.22,1.07,.6,1.46,.38,.39,.91,.6,1.45,.6h2.04c.54,0,1.07-.22,1.45-.6,.38-.39,.6-.91,.6-1.46V10.05c0-.55-.22-1.07-.6-1.46Zm8.44,.19c-.38-.39-.91-.6-1.45-.6h-2.05c-.54,0-1.07,.22-1.45,.6-.38,.39-.6,.91-.6,1.46V28.78c0,.55,.22,1.07,.6,1.46,.38,.39,.91,.6,1.45,.6h2.05c.54,0,1.07-.22,1.45-.6,.38-.39,.6-.91,.6-1.46V10.24c0-.55-.22-1.07-.6-1.46Zm9.3,8.82l-1.43-5.77c-.07-.26-.18-.51-.34-.73-.16-.22-.36-.4-.59-.54-.23-.14-.49-.23-.75-.27-.27-.04-.54-.03-.8,.04l-2.01,.5c-.26,.07-.51,.18-.72,.34-.22,.16-.4,.36-.54,.6-.14,.23-.23,.49-.27,.76-.04,.27-.03,.54,.04,.8l1.92,7.73c1.11-1.95,3.15-3.31,5.51-3.46Z"/></svg>