<?xml version="1.0" encoding="UTF-8"?><svg id="Layer_1" xmlns="http://www.w3.org/2000/svg" viewBox="0 0 40 40"><defs><style>.cls-1{fill:#292929;}</style></defs><path class="cls-1" d="M13.25,14.54h6.18c.53,0,.96-.43,.96-.96s-.43-.96-.96-.96h-6.18c-.53,0-.96,.43-.96,.96s.43,.96,.96,.96Z"/><path class="cls-1" d="M26.75,16.27H13.25c-.53,0-.96,.43-.96,.96s.43,.96,.96,.96h13.51c.53,0,.96-.43,.96-.96s-.43-.96-.96-.96Z"/><path class="cls-1" d="M26.75,27.23H13.25c-.53,0-.96,.43-.96,.96s.43,.96,.96,.96h13.51c.53,0,.96-.43,.96-.96s-.43-.96-.96-.96Z"/><path class="cls-1" d="M30.9,13.05h0s0-.08-.01-.13c0-.01,0-.06-.01-.07,0-.03-.02-.06-.03-.1,0,0-.02-.06-.02-.07,0-.02-.02-.05-.06-.11,0,0-.03-.05-.03-.06,0,0-.07-.08-.07-.09-.02-.02-.04-.04-.07-.08l-6.24-5.72c-.28-.26-.69-.32-1.03-.17-.35,.15-.57,.5-.57,.88v4.6c0,1.44,1.17,2.6,2.6,2.6h2.25c.53,0,.96-.43,.96-.96s-.43-.96-.96-.96h-2.25c-.38,0-.69-.31-.69-.69v-2.42l4.32,3.97V31.02c0,.38-.31,.69-.69,.69H11.7c-.38,0-.69-.31-.69-.69V8.98c0-.38,.31-.69,.69-.69h9.62c.53,0,.96-.43,.96-.96s-.43-.96-.96-.96H11.7c-1.44,0-2.61,1.17-2.61,2.6V31.02c0,1.44,1.17,2.6,2.61,2.6H28.3c1.44,0,2.6-1.17,2.6-2.6V13.05Zm-.38-.38s0,0,0,0h0s0,0,0,0Zm.06,.11s0,0,0,0h0s0,0,0,0Z"/><path class="cls-1" d="M26.75,19.92H13.25c-.53,0-.96,.43-.96,.96s.43,.96,.96,.96h13.51c.53,0,.96-.43,.96-.96s-.43-.96-.96-.96Z"/><path class="cls-1" d="M26.75,23.58H13.25c-.53,0-.96,.43-.96,.96s.43,.96,.96,.96h13.51c.53,0,.96-.43,.96-.96s-.43-.96-.96-.96Z"/></svg>