<svg width="55" height="55" viewBox="0 0 55 55" fill="none" xmlns="http://www.w3.org/2000/svg">
<path d="M25.0242 33.591L31.7569 15.9264C32.2057 14.7474 33.8779 14.6938 34.4397 15.7654L34.5116 15.9264L42.5806 37.0996C42.7062 37.4369 42.6938 37.8075 42.5461 38.1364C42.3983 38.4653 42.1262 38.7278 41.7848 38.8707C41.4435 39.0136 41.0585 39.0263 40.7078 38.9061C40.3571 38.7859 40.067 38.5419 39.8963 38.2235L39.8274 38.0724L37.7562 32.6478H28.5079L26.3927 38.1825L26.334 38.2941L26.227 38.4466L26.114 38.5736L25.9893 38.6824L25.8676 38.7671L25.7942 38.8123L25.671 38.873L25.5185 38.9294L25.3645 38.969L25.1694 38.9972L25.0124 38.9986L24.9083 38.9916L24.7572 38.969L24.5372 38.9069L24.436 38.8645L24.2893 38.7868L24.1265 38.6739L23.9915 38.5525L23.8976 38.4452L23.8082 38.3181L23.7289 38.1741L22.6347 35.4731H17.228L16.1675 38.0992C16.0373 38.4217 15.7888 38.687 15.4689 38.8447C15.149 39.0024 14.7801 39.0416 14.4322 38.9549L14.2694 38.904C13.9341 38.7788 13.6582 38.5393 13.4943 38.231C13.3305 37.9228 13.2899 37.5674 13.3805 37.2323L13.4333 37.077L18.5657 24.3739C19.0278 23.2303 20.6486 23.1766 21.2207 24.2101L21.2999 24.3739L25.0242 33.5924V33.591ZM19.9328 28.7805L18.3692 32.6478H21.495L19.9328 28.7791V28.7805ZM33.1342 20.5123L29.5845 29.8225H36.681L33.1342 20.5123Z" fill="#292929"/>
</svg>
