<svg width="50" height="50" viewBox="0 0 41 41" fill="none" xmlns="http://www.w3.org/2000/svg">
<circle cx="20.5" cy="20.5" r="12.8125" fill="#FFFEF7"/>
<path d="M20.5 5.125C22.5191 5.125 24.5184 5.52269 26.3838 6.29535C28.2491 7.06802 29.9441 8.20053 31.3718 9.62823C32.7995 11.0559 33.932 12.7509 34.7046 14.6162C35.4773 16.4816 35.875 18.4809 35.875 20.5C35.875 22.5191 35.4773 24.5184 34.7046 26.3838C33.932 28.2491 32.7995 29.9441 31.3718 31.3718C29.9441 32.7995 28.2491 33.932 26.3838 34.7046C24.5184 35.4773 22.5191 35.875 20.5 35.875C16.4223 35.875 12.5116 34.2551 9.62823 31.3718C6.74486 28.4884 5.125 24.5777 5.125 20.5C5.125 16.4223 6.74486 12.5116 9.62823 9.62823C12.5116 6.74486 16.4223 5.125 20.5 5.125V5.125ZM20.5 7.6875C17.1019 7.6875 13.843 9.03738 11.4402 11.4402C9.03738 13.843 7.6875 17.1019 7.6875 20.5C7.6875 23.8981 9.03738 27.157 11.4402 29.5598C13.843 31.9626 17.1019 33.3125 20.5 33.3125C23.8981 33.3125 27.157 31.9626 29.5598 29.5598C31.9626 27.157 33.3125 23.8981 33.3125 20.5C33.3125 17.1019 31.9626 13.843 29.5598 11.4402C27.157 9.03738 23.8981 7.6875 20.5 7.6875V7.6875ZM20.5 26.9062C21.0097 26.9062 21.4985 27.1087 21.859 27.4692C22.2194 27.8296 22.4219 28.3184 22.4219 28.8281C22.4219 29.3378 22.2194 29.8267 21.859 30.1871C21.4985 30.5475 21.0097 30.75 20.5 30.75C19.9903 30.75 19.5015 30.5475 19.141 30.1871C18.7806 29.8267 18.5781 29.3378 18.5781 28.8281C18.5781 28.3184 18.7806 27.8296 19.141 27.4692C19.5015 27.1087 19.9903 26.9062 20.5 26.9062ZM20.5 11.5312C21.8592 11.5313 23.1628 12.0712 24.1239 13.0323C25.085 13.9935 25.625 15.297 25.625 16.6562C25.625 18.5269 25.0818 19.5775 23.6929 21.033L23.0164 21.7249C22.0503 22.7294 21.7812 23.2726 21.7812 24.3438C21.7812 24.6836 21.6463 25.0095 21.406 25.2497C21.1657 25.49 20.8398 25.625 20.5 25.625C20.1602 25.625 19.8343 25.49 19.594 25.2497C19.3537 25.0095 19.2188 24.6836 19.2188 24.3438C19.2188 22.4731 19.762 21.4225 21.1509 19.967L21.8274 19.2751C22.7934 18.2706 23.0625 17.7274 23.0625 16.6562C23.0625 15.9766 22.7925 15.3249 22.312 14.8443C21.8314 14.3637 21.1796 14.0938 20.5 14.0938C19.8204 14.0938 19.1686 14.3637 18.688 14.8443C18.2075 15.3249 17.9375 15.9766 17.9375 16.6562C17.9375 16.9961 17.8025 17.3219 17.5622 17.5622C17.3219 17.8025 16.9961 17.9375 16.6562 17.9375C16.3164 17.9375 15.9906 17.8025 15.7503 17.5622C15.51 17.3219 15.375 16.9961 15.375 16.6562C15.375 15.297 15.915 13.9935 16.8761 13.0323C17.8372 12.0712 19.1408 11.5313 20.5 11.5312V11.5312Z" fill="#292929"/>
</svg>
