<?xml version="1.0" encoding="utf-8"?>
<!-- Generator: Adobe Illustrator 27.0.1, SVG Export Plug-In . SVG Version: 6.00 Build 0)  -->
<svg version="1.1" id="Layer_1" xmlns="http://www.w3.org/2000/svg" xmlns:xlink="http://www.w3.org/1999/xlink" x="0px" y="0px"
	 viewBox="0 0 50 50" style="enable-background:new 0 0 50 50;" xml:space="preserve">
<style type="text/css">
	.st0{fill:#FFFEF7;}
	.st1{fill:#292929;}
</style>
<circle class="st0" cx="25.3" cy="25.3" r="17.1"/>
<path class="st1" d="M25.3,4.3c2.8,0,5.5,0.5,8,1.6c2.5,1.1,4.9,2.6,6.8,4.6c2,1.9,3.5,4.3,4.6,6.8c1.1,2.5,1.6,5.3,1.6,8
	s-0.5,5.5-1.6,8c-1.1,2.5-2.6,4.9-4.6,6.8c-2,2-4.3,3.5-6.8,4.6c-2.5,1.1-5.3,1.6-8,1.6c-5.6,0-10.9-2.2-14.8-6.2
	c-3.9-3.9-6.2-9.3-6.2-14.8s2.2-10.9,6.2-14.8S19.7,4.3,25.3,4.3L25.3,4.3z M25.3,7.8c-4.6,0-9.1,1.8-12.4,5.1
	c-3.3,3.3-5.1,7.7-5.1,12.4s1.8,9.1,5.1,12.4c3.3,3.3,7.7,5.1,12.4,5.1s9.1-1.8,12.4-5.1c3.3-3.3,5.1-7.7,5.1-12.4
	s-1.8-9.1-5.1-12.4C34.4,9.6,29.9,7.8,25.3,7.8L25.3,7.8z M25.3,34c0.7,0,1.4,0.3,1.9,0.8c0.5,0.5,0.8,1.2,0.8,1.9s-0.3,1.4-0.8,1.9
	c-0.5,0.5-1.2,0.8-1.9,0.8s-1.4-0.3-1.9-0.8c-0.5-0.5-0.8-1.2-0.8-1.9s0.3-1.4,0.8-1.9C23.9,34.3,24.6,34,25.3,34z M25.3,13
	c1.9,0,3.6,0.7,4.9,2.1c1.3,1.3,2.1,3.1,2.1,4.9c0,2.6-0.7,4-2.6,6L28.7,27c-1.3,1.4-1.7,2.1-1.7,3.6c0,0.5-0.2,0.9-0.5,1.2
	c-0.3,0.3-0.8,0.5-1.2,0.5s-0.9-0.2-1.2-0.5c-0.3-0.3-0.5-0.8-0.5-1.2c0-2.6,0.7-4,2.6-6l0.9-0.9c1.3-1.4,1.7-2.1,1.7-3.6
	c0-0.9-0.4-1.8-1-2.5c-0.7-0.7-1.5-1-2.5-1s-1.8,0.4-2.5,1c-0.7,0.7-1,1.5-1,2.5c0,0.5-0.2,0.9-0.5,1.2c-0.3,0.3-0.8,0.5-1.2,0.5
	c-0.5,0-0.9-0.2-1.2-0.5c-0.3-0.3-0.5-0.8-0.5-1.2c0-1.9,0.7-3.6,2.1-4.9C21.6,13.8,23.4,13,25.3,13L25.3,13z"/>
</svg>
