<svg width="41" height="41" viewBox="0 0 41 41" fill="none" xmlns="http://www.w3.org/2000/svg">
<path d="M9.25767 15.4734C10.1515 14.5591 11.3958 14.4873 12.4885 15.4734L20.4999 23.1547L28.5113 15.4734C29.6039 14.4873 30.8503 14.5591 31.738 15.4734C32.6318 16.3856 32.5744 17.9272 31.738 18.7841C30.9057 19.641 22.1132 28.0132 22.1132 28.0132C21.9038 28.2302 21.6529 28.4028 21.3754 28.5207C21.0978 28.6386 20.7994 28.6993 20.4978 28.6993C20.1963 28.6993 19.8978 28.6386 19.6203 28.5207C19.3427 28.4028 19.0918 28.2302 18.8824 28.0132C18.8824 28.0132 10.0941 19.641 9.25767 18.7841C8.41922 17.9272 8.36387 16.3856 9.25767 15.4734Z" fill="black"/>
</svg>
