<svg width="42" height="42" viewBox="0 0 42 42" fill="none" xmlns="http://www.w3.org/2000/svg">
<path d="M11.875 37.5H32.125C32.4254 37.5 32.7122 37.4505 32.989 37.3779L26.6457 31.1756C25.2697 32.0718 23.6533 32.55 22 32.55C17.3476 32.55 13.5625 28.8491 13.5625 24.3C13.5625 19.751 17.3476 16.05 22 16.05C26.6524 16.05 30.4375 19.751 30.4375 24.3C30.4377 25.9166 29.9486 27.4971 29.0318 28.8425L35.3751 35.0448C35.4494 34.7742 35.5 34.4937 35.5 34.2V14.4L25.375 4.5H11.875C10.9799 4.5 10.1214 4.84768 9.48851 5.46655C8.85558 6.08542 8.5 6.92479 8.5 7.8V34.2C8.5 35.0752 8.85558 35.9146 9.48851 36.5335C10.1214 37.1523 10.9799 37.5 11.875 37.5Z" fill="black"/>
<path d="M22 29.25C24.7959 29.25 27.0625 27.0338 27.0625 24.3C27.0625 21.5662 24.7959 19.35 22 19.35C19.2041 19.35 16.9375 21.5662 16.9375 24.3C16.9375 27.0338 19.2041 29.25 22 29.25Z" fill="black"/>
</svg>
