<svg width="42" height="42" viewBox="0 0 42 42" fill="none" xmlns="http://www.w3.org/2000/svg">
<path d="M21.0795 26.9658C21.1095 27.0041 21.1478 27.0351 21.1915 27.0564C21.2352 27.0777 21.2832 27.0887 21.3318 27.0887C21.3804 27.0887 21.4284 27.0777 21.4721 27.0564C21.5158 27.0351 21.5541 27.0041 21.584 26.9658L26.0684 21.2923C26.2326 21.0841 26.0844 20.7758 25.8162 20.7758H22.8493V7.22656C22.8493 7.05039 22.7051 6.90625 22.529 6.90625H20.1266C19.9504 6.90625 19.8063 7.05039 19.8063 7.22656V20.7718H16.8474C16.5792 20.7718 16.431 21.0801 16.5952 21.2883L21.0795 26.9658ZM35.9861 25.5645H33.5837C33.4076 25.5645 33.2634 25.7086 33.2634 25.8848V32.0508H9.40015V25.8848C9.40015 25.7086 9.25601 25.5645 9.07983 25.5645H6.67749C6.50132 25.5645 6.35718 25.7086 6.35718 25.8848V33.8125C6.35718 34.5212 6.92974 35.0938 7.63843 35.0938H35.0251C35.7338 35.0938 36.3064 34.5212 36.3064 33.8125V25.8848C36.3064 25.7086 36.1623 25.5645 35.9861 25.5645Z" fill="black"/>
</svg>
