<svg width="42" height="42" viewBox="0 0 42 42" fill="none" xmlns="http://www.w3.org/2000/svg">
<path d="M17.4566 28.091L24.3423 10.4264C24.8014 9.24742 26.5116 9.19377 27.0861 10.2654L27.1597 10.4264L35.412 31.5996C35.5405 31.9369 35.5279 32.3075 35.3767 32.6364C35.2256 32.9653 34.9473 33.2278 34.5982 33.3707C34.2491 33.5136 33.8553 33.5263 33.4967 33.4061C33.138 33.2859 32.8413 33.0419 32.6667 32.7235L32.5962 32.5724L30.478 27.1478H21.0195L18.8563 32.6825L18.7962 32.7941L18.6867 32.9466L18.5712 33.0736L18.4437 33.1824L18.3192 33.2671L18.2442 33.3123L18.1182 33.373L17.9622 33.4294L17.8046 33.469L17.6051 33.4972L17.4446 33.4986L17.3381 33.4916L17.1836 33.469L16.9585 33.4069L16.855 33.3645L16.705 33.2868L16.5385 33.1739L16.4005 33.0525L16.3045 32.9452L16.213 32.8181L16.132 32.6741L15.0128 29.9731H9.48324L8.39862 32.5992C8.26555 32.9217 8.01132 33.187 7.68418 33.3447C7.35703 33.5024 6.97975 33.5416 6.62393 33.4549L6.45741 33.404C6.11446 33.2788 5.83236 33.0393 5.66475 32.731C5.49714 32.4228 5.45571 32.0674 5.54832 31.7323L5.60232 31.577L10.8514 18.8739C11.3239 17.7303 12.9816 17.6766 13.5667 18.7101L13.6477 18.8739L17.4566 28.0924V28.091ZM12.2495 23.2805L10.6504 27.1478H13.8472L12.2495 23.2791V23.2805ZM25.751 15.0123L22.1206 24.3225H29.3784L25.751 15.0123Z" fill="black"/>
</svg>
