<svg width="42" height="42" viewBox="0 0 42 42" fill="none" xmlns="http://www.w3.org/2000/svg">
<path d="M9.69299 32.3831H16.1073L18.2814 30.2169L15.0742 27.0579L9.69299 32.3831Z" fill="black" fill-opacity="0.15"/>
<path d="M38.8414 20.82L24.6516 6.83832C24.6222 6.80878 24.5872 6.78534 24.5488 6.76934C24.5103 6.75335 24.469 6.74512 24.4273 6.74512C24.3857 6.74512 24.3444 6.75335 24.3059 6.76934C24.2675 6.78534 24.2325 6.80878 24.2031 6.83832L14.6458 16.2555C14.5857 16.3152 14.5515 16.3962 14.5507 16.4809C14.55 16.5656 14.5827 16.6472 14.6418 16.7079L14.6458 16.712L16.2474 18.2895L11.5548 22.906C11.4946 22.9657 11.4605 23.0467 11.4597 23.1314C11.459 23.2161 11.4917 23.2977 11.5508 23.3584L11.5548 23.3624L13.1363 24.92L5.56494 32.4073H3.38682C3.21064 32.4073 3.0625 32.5514 3.0625 32.7276V34.9377C3.0625 35.1139 3.20664 35.258 3.38281 35.258H17.1923C17.2764 35.258 17.3564 35.226 17.4165 35.166L20.4635 32.139L22.0811 33.7326C22.1104 33.7621 22.1454 33.7855 22.1839 33.8015C22.2223 33.8175 22.2636 33.8258 22.3053 33.8258C22.3469 33.8258 22.3882 33.8175 22.4267 33.8015C22.4652 33.7855 22.5001 33.7621 22.5295 33.7326L27.2181 29.104L28.8236 30.6856C28.853 30.7151 28.888 30.7386 28.9264 30.7546C28.9649 30.7706 29.0062 30.7788 29.0479 30.7788C29.0895 30.7788 29.1308 30.7706 29.1693 30.7546C29.2077 30.7386 29.2427 30.7151 29.2721 30.6856L38.8294 21.2684C38.9655 21.1483 38.9655 20.9481 38.8414 20.82ZM16.1072 32.3832H9.69297L15.0742 27.058L18.2813 30.2171L16.1072 32.3832ZM22.3053 29.8968L15.4426 23.1342L18.1893 20.4276L25.052 27.1902L22.3053 29.8968ZM29.0519 26.8498L18.5296 16.4837L24.4273 10.6741L34.9496 21.0442L29.0519 26.8498Z" fill="black"/>
</svg>
