<svg width="41" height="41" viewBox="0 0 41 41" fill="none" xmlns="http://www.w3.org/2000/svg">
<path d="M34.6405 39.5H24.1717V30.2707V28.7707H22.6717H17.6064H16.1064V30.2707V39.5H6.3612C6.35903 39.4921 6.35725 39.4813 6.35725 39.4672V25.3994V23.8994H4.85725H2.89445C2.20639 23.8994 1.5 23.2786 1.5 22.3339C1.5 21.8932 1.66742 21.4837 1.94052 21.1943C1.94065 21.1941 1.94077 21.194 1.9409 21.1939L20.5008 1.55135L39.0608 21.1939C39.0609 21.194 39.061 21.1941 39.0612 21.1943C39.6459 21.814 39.6459 22.8517 39.0633 23.4713L39.0611 23.4737C38.7959 23.7569 38.4523 23.8994 38.1072 23.8994H36.1444H34.6444V25.3994V39.4672C34.6444 39.4813 34.6427 39.4921 34.6405 39.5Z" fill="#FFFFFC" stroke="#292929" stroke-width="3"/>
</svg>
