<svg width="25" height="24" viewBox="0 0 25 24" fill="none" xmlns="http://www.w3.org/2000/svg">
<path fill-rule="evenodd" clip-rule="evenodd" d="M5.8603 15.9576C6.10098 16.1966 6.23618 16.5206 6.23618 16.8586C6.23618 17.1965 6.10098 17.5206 5.8603 17.7596L5.32881 18.2872H19.6714L19.1399 17.7596C19.0173 17.642 18.9195 17.5014 18.8522 17.3459C18.7849 17.1904 18.7495 17.0232 18.748 16.854C18.7465 16.6848 18.779 16.517 18.8436 16.3603C18.9081 16.2037 19.0035 16.0614 19.124 15.9418C19.2445 15.8221 19.3879 15.7275 19.5456 15.6634C19.7034 15.5993 19.8725 15.5671 20.0429 15.5686C20.2134 15.57 20.3818 15.6052 20.5385 15.672C20.6951 15.7388 20.8368 15.8359 20.9552 15.9576L23.6781 18.6593C23.7975 18.7777 23.8922 18.9182 23.9568 19.0729C24.0214 19.2276 24.0546 19.3935 24.0546 19.5609C24.0546 19.7284 24.0214 19.8943 23.9568 20.049C23.8922 20.2037 23.7975 20.3442 23.6781 20.4626L20.9552 23.1656C20.7131 23.3977 20.3888 23.5262 20.0522 23.5233C19.7156 23.5204 19.3936 23.3863 19.1555 23.1501C18.9175 22.9138 18.7825 22.5941 18.7796 22.26C18.7767 21.9259 18.9061 21.6039 19.1399 21.3636L19.6714 20.836H5.32881L5.8603 21.3636C5.98292 21.4811 6.08072 21.6218 6.148 21.7772C6.21529 21.9327 6.2507 22.1 6.25218 22.2692C6.25366 22.4384 6.22118 22.6062 6.15663 22.7628C6.09208 22.9194 5.99675 23.0617 5.87621 23.1814C5.75568 23.301 5.61234 23.3957 5.45456 23.4597C5.29679 23.5238 5.12774 23.5561 4.95728 23.5546C4.78682 23.5531 4.61836 23.518 4.46173 23.4512C4.3051 23.3844 4.16344 23.2873 4.04501 23.1656L1.32208 20.4639C1.20271 20.3455 1.10802 20.2049 1.04342 20.0502C0.97881 19.8955 0.945557 19.7297 0.945557 19.5622C0.945557 19.3947 0.97881 19.2289 1.04342 19.0742C1.10802 18.9195 1.20271 18.7789 1.32208 18.6606L4.04501 15.9576C4.28576 15.7187 4.61224 15.5844 4.95266 15.5844C5.29307 15.5844 5.61955 15.7187 5.8603 15.9576V15.9576ZM16.3515 0.445557C16.6659 0.445598 16.9694 0.560197 17.2044 0.767618C17.4394 0.975038 17.5895 1.26085 17.6263 1.57085L17.6353 1.71996V5.97264C18.3301 5.64608 19.0977 5.50193 19.8646 5.55398C20.6315 5.60603 21.3722 5.85254 22.0158 6.26993C22.6593 6.68732 23.1842 7.26163 23.5403 7.93793C23.8964 8.61424 24.0717 9.36992 24.0495 10.1327C24.0274 10.8955 23.8084 11.6399 23.4136 12.2947C23.0188 12.9495 22.4614 13.4928 21.7947 13.8726C21.1279 14.2524 20.3742 14.4561 19.6055 14.4642C18.8368 14.4722 18.0789 14.2843 17.4042 13.9185C17.2556 14.131 17.0453 14.2935 16.8013 14.3844C16.5574 14.4753 16.2913 14.4903 16.0385 14.4273C15.7858 14.3643 15.5583 14.2264 15.3865 14.0319C15.2147 13.8375 15.1066 13.5956 15.0767 13.3387L15.0677 13.1896V1.71996C15.0677 1.38197 15.203 1.05782 15.4437 0.81882C15.6845 0.579824 16.011 0.445557 16.3515 0.445557V0.445557ZM7.36491 0.445557C7.77956 0.445478 8.18595 0.560628 8.53808 0.777971C8.89021 0.995315 9.17401 1.30617 9.35737 1.67535L9.43568 1.8525L13.6966 12.7282C13.8127 13.0307 13.8084 13.3657 13.6848 13.6652C13.5611 13.9646 13.3273 14.2062 13.0308 14.3408C12.7343 14.4754 12.3973 14.493 12.0882 14.3899C11.7791 14.2869 11.5211 14.071 11.3665 13.786L11.3036 13.6509L10.1238 10.6408H4.60603L3.42622 13.6509C3.30735 13.9535 3.07655 14.1997 2.78097 14.3391C2.4854 14.4785 2.14736 14.5005 1.83594 14.4008C1.52452 14.3011 1.26322 14.087 1.10543 13.8025C0.947647 13.5179 0.905286 13.1842 0.987006 12.8697L1.03322 12.7282L5.29415 1.8525C5.45619 1.43808 5.74064 1.08198 6.11018 0.830898C6.47973 0.579819 6.9171 0.445497 7.36491 0.445557V0.445557ZM19.561 8.09197C19.0503 8.09197 18.5605 8.29337 18.1993 8.65186C17.8382 9.01036 17.6353 9.49658 17.6353 10.0036C17.6353 10.5106 17.8382 10.9968 18.1993 11.3553C18.5605 11.7138 19.0503 11.9152 19.561 11.9152C20.0717 11.9152 20.5615 11.7138 20.9227 11.3553C21.2838 10.9968 21.4867 10.5106 21.4867 10.0036C21.4867 9.49658 21.2838 9.01036 20.9227 8.65186C20.5615 8.29337 20.0717 8.09197 19.561 8.09197ZM7.36491 3.59715L5.60483 8.09197H9.12628L7.36491 3.59715Z" fill="black"/>
</svg>
