<svg width="41" height="41" viewBox="0 0 41 41" fill="none" xmlns="http://www.w3.org/2000/svg">
<g clip-path="url(#clip0_1114_1064)">
<path d="M5.00223 3H7.00334C9.11251 3 10.8415 4.632 10.9956 6.7L11.0056 7V35C11.0049 36.0087 10.6232 36.9799 9.93676 37.7193C9.25034 38.4588 8.30986 38.9119 7.30351 38.988L7.00334 39H5.00223C3.99265 38.9999 3.02039 38.6186 2.28011 37.9325C1.53984 37.2464 1.08619 36.3061 1.01001 35.3L1 35V7C1 4.892 2.63291 3.164 4.70206 3.01L5.00223 3ZM17.0089 3H19.01C21.1192 3 22.8481 4.632 23.0022 6.7L23.0122 7V35C23.0116 36.0087 22.6299 36.9799 21.9434 37.7193C21.257 38.4588 20.3165 38.9119 19.3102 38.988L19.01 39H17.0089C15.9993 38.9999 15.0271 38.6186 14.2868 37.9325C13.5465 37.2464 13.0929 36.3061 13.0167 35.3L13.0067 35V7C13.0067 4.892 14.6396 3.164 16.7087 3.01L17.0089 3ZM30.9647 7C32.6456 7 34.1825 8.062 34.7468 9.692L34.8408 10.006L40.8742 33.496C41.1253 34.4733 40.9976 35.5094 40.5167 36.3966C40.0357 37.2838 39.2371 37.9565 38.2807 38.28L37.9926 38.366L36.0535 38.862C35.0802 39.1105 34.0489 38.9844 33.1642 38.5088C32.2795 38.0331 31.6059 37.2426 31.2768 36.294L31.1828 35.984L25.1474 12.494C24.8965 11.5162 25.0247 10.4796 25.5065 9.59237C25.9882 8.70509 26.7878 8.03268 27.7449 7.71L28.031 7.624L29.9681 7.128C30.2936 7.04345 30.6284 7.00044 30.9647 7ZM7.00334 6H5.00223C4.76815 6.00031 4.54156 6.08247 4.36174 6.23224C4.18191 6.38201 4.06019 6.58994 4.01768 6.82L4.00167 7V35C4.00167 35.488 4.35587 35.9 4.82213 35.984L5.00223 36H7.00334C7.49361 36 7.90384 35.644 7.98789 35.18L8.00389 35V7C8.00358 6.76605 7.92138 6.53959 7.77152 6.35987C7.62167 6.18015 7.41362 6.05849 7.18344 6.016L7.00334 6ZM19.01 6H17.0089C16.7748 6.00031 16.5482 6.08247 16.3684 6.23224C16.1886 6.38201 16.0669 6.58994 16.0244 6.82L16.0083 7V35C16.0083 35.488 16.3625 35.9 16.8288 35.984L17.0089 36H19.01C19.5003 36 19.9105 35.644 19.9946 35.18L20.0106 35V7C20.0103 6.76605 19.9281 6.53959 19.7782 6.35987C19.6283 6.18015 19.4203 6.05849 19.1901 6.016L19.01 6ZM30.9667 10L30.8406 10.008L30.7145 10.034L28.7774 10.528C28.5531 10.5843 28.3553 10.7169 28.218 10.903C28.0807 11.0891 28.0125 11.3171 28.025 11.548L28.055 11.748L34.0904 35.238C34.1458 35.4523 34.2707 35.6422 34.4456 35.7779C34.6205 35.9136 34.8355 35.9875 35.0569 35.988L35.183 35.982L35.3071 35.958L37.2482 35.458C37.4746 35.3997 37.6735 35.2639 37.8102 35.0743C37.9469 34.8847 38.0129 34.6532 37.9966 34.42L37.9666 34.244L31.9332 10.75C31.8775 10.5359 31.7525 10.3462 31.5777 10.2105C31.4029 10.0749 31.188 10.0008 30.9667 10Z" fill="#292929"/>
<path d="M30.9667 10L30.8406 10.008L30.7145 10.034L28.7774 10.528C28.5531 10.5843 28.3553 10.7169 28.218 10.903C28.0807 11.0891 28.0125 11.3171 28.025 11.548L28.055 11.748L34.0904 35.238C34.1458 35.4523 34.2707 35.6422 34.4456 35.7779C34.6205 35.9136 34.8355 35.9875 35.0569 35.988L35.183 35.982L35.3071 35.958L37.2482 35.458C37.4746 35.3997 37.6735 35.2639 37.8102 35.0743C37.9469 34.8847 38.0129 34.6532 37.9966 34.42L37.9666 34.244L31.9332 10.75C31.8775 10.5359 31.7525 10.3462 31.5777 10.2105C31.4029 10.0749 31.188 10.0008 30.9667 10Z" fill="#FFFFFC"/>
<path d="M19.01 6H17.0089C16.7748 6.00031 16.5482 6.08247 16.3684 6.23224C16.1886 6.38201 16.0669 6.58994 16.0244 6.82L16.0083 7V35C16.0083 35.488 16.3625 35.9 16.8288 35.984L17.0089 36H19.01C19.5003 36 19.9105 35.644 19.9946 35.18L20.0106 35V7C20.0103 6.76605 19.9281 6.53959 19.7782 6.35987C19.6283 6.18015 19.4203 6.05849 19.1901 6.016L19.01 6Z" fill="#FFFFFC"/>
<path d="M7.00334 6H5.00223C4.76815 6.00031 4.54156 6.08247 4.36174 6.23224C4.18191 6.38201 4.06019 6.58994 4.01768 6.82L4.00167 7V35C4.00167 35.488 4.35587 35.9 4.82213 35.984L5.00223 36H7.00334C7.49361 36 7.90384 35.644 7.98789 35.18L8.00389 35V7C8.00358 6.76605 7.92138 6.53959 7.77152 6.35987C7.62167 6.18015 7.41362 6.05849 7.18344 6.016L7.00334 6Z" fill="#FFFFFC"/>
</g>
<defs>
<clipPath id="clip0_1114_1064">
<rect width="41" height="41" fill="white"/>
</clipPath>
</defs>
</svg>
