<svg width="25" height="26" viewBox="0 0 25 26" fill="none" xmlns="http://www.w3.org/2000/svg">
<path d="M8.81765 12.2636C9.99785 11.0834 12.0562 11.0834 13.2364 12.2636L13.9729 13.0001L15.4458 11.5271L14.7093 10.7907C13.727 9.80736 12.4187 9.26465 11.027 9.26465C9.63535 9.26465 8.32702 9.80736 7.34473 10.7907L5.13431 13.0001C4.15962 13.9779 3.6123 15.3022 3.6123 16.6829C3.6123 18.0635 4.15962 19.3879 5.13431 20.3657C5.61751 20.8496 6.19157 21.2332 6.8235 21.4946C7.45542 21.7559 8.13277 21.8898 8.8166 21.8886C9.50063 21.89 10.1782 21.7562 10.8103 21.4949C11.4424 21.2335 12.0166 20.8498 12.4999 20.3657L13.2364 19.6292L11.7635 18.1563L11.027 18.8928C10.44 19.4772 9.64543 19.8052 8.81713 19.8052C7.98882 19.8052 7.19424 19.4772 6.60723 18.8928C6.02234 18.306 5.6939 17.5113 5.6939 16.6829C5.6939 15.8544 6.02234 15.0597 6.60723 14.473L8.81765 12.2636Z" fill="black"/>
<path d="M12.5 5.63444L11.7636 6.3709L13.2365 7.84381L13.9729 7.10736C14.56 6.52297 15.3545 6.19489 16.1828 6.19489C17.0111 6.19489 17.8057 6.52297 18.3927 7.10736C18.9776 7.6941 19.3061 8.48878 19.3061 9.31725C19.3061 10.1457 18.9776 10.9404 18.3927 11.5271L16.1823 13.7365C15.0021 14.9167 12.9438 14.9167 11.7636 13.7365L11.0271 13.0001L9.5542 14.473L10.2907 15.2094C11.2729 16.1928 12.5813 16.7355 13.9729 16.7355C15.3646 16.7355 16.6729 16.1928 17.6552 15.2094L19.8657 13.0001C20.8404 12.0222 21.3877 10.6979 21.3877 9.31725C21.3877 7.93661 20.8404 6.61227 19.8657 5.63444C18.8881 4.65924 17.5637 4.11157 16.1828 4.11157C14.802 4.11157 13.4776 4.65924 12.5 5.63444V5.63444Z" fill="black"/>
</svg>
