<svg width="41" height="41" viewBox="0 0 41 41" fill="none" xmlns="http://www.w3.org/2000/svg">
<g clip-path="url(#clip0_1114_1066)">
<path d="M20.5 9.25C19.1094 9.25 17.7499 9.66238 16.5937 10.435C15.4374 11.2076 14.5362 12.3057 14.004 13.5905C13.4718 14.8753 13.3326 16.2891 13.6039 17.653C13.8752 19.0169 14.5448 20.2698 15.5282 21.2531C16.5115 22.2364 17.7644 22.9061 19.1283 23.1774C20.4922 23.4487 21.906 23.3095 23.1908 22.7773C24.4755 22.2451 25.5737 21.3439 26.3463 20.1876C27.1189 19.0313 27.5313 17.6719 27.5313 16.2812C27.5313 14.4164 26.7905 12.628 25.4719 11.3094C24.1532 9.99079 22.3648 9.25 20.5 9.25ZM20.5 20.5C19.6656 20.5 18.85 20.2526 18.1562 19.789C17.4624 19.3255 16.9217 18.6666 16.6024 17.8957C16.2831 17.1248 16.1995 16.2766 16.3623 15.4582C16.5251 14.6399 16.9269 13.8881 17.5169 13.2981C18.1069 12.7081 18.8586 12.3063 19.677 12.1436C20.4953 11.9808 21.3436 12.0643 22.1145 12.3836C22.8853 12.7029 23.5442 13.2437 24.0078 13.9374C24.4713 14.6312 24.7188 15.4469 24.7188 16.2812C24.7176 17.3998 24.2728 18.4722 23.4819 19.2631C22.691 20.0541 21.6185 20.4989 20.5 20.5Z" fill="#292929"/>
<path d="M20.5 0.8125C16.6062 0.8125 12.7998 1.96715 9.56222 4.13044C6.32463 6.29373 3.80123 9.3685 2.31113 12.9659C0.82103 16.5633 0.431152 20.5218 1.1908 24.3408C1.95045 28.1598 3.8255 31.6678 6.57884 34.4212C9.33219 37.1745 12.8402 39.0496 16.6592 39.8092C20.4782 40.5689 24.4367 40.179 28.0341 38.6889C31.6315 37.1988 34.7063 34.6754 36.8696 31.4378C39.0329 28.2002 40.1875 24.3938 40.1875 20.5C40.1816 15.2804 38.1054 10.2762 34.4146 6.58541C30.7238 2.89458 25.7196 0.818455 20.5 0.8125ZM12.0625 35.0927V33.1562C12.0636 32.0377 12.5085 30.9653 13.2994 30.1744C14.0903 29.3834 15.1627 28.9386 16.2813 28.9375H24.7188C25.8373 28.9386 26.9097 29.3834 27.7006 30.1744C28.4916 30.9653 28.9364 32.0377 28.9375 33.1562V35.0927C26.377 36.5878 23.4651 37.3757 20.5 37.3757C17.5349 37.3757 14.6231 36.5878 12.0625 35.0927ZM31.7388 33.0522C31.7107 31.2077 30.9592 29.448 29.6461 28.1522C28.333 26.8565 26.5635 26.1285 24.7188 26.125H16.2813C14.4365 26.1285 12.667 26.8565 11.3539 28.1522C10.0408 29.448 9.28928 31.2077 9.26126 33.0522C6.71111 30.7751 4.91275 27.7772 4.10431 24.4553C3.29586 21.1335 3.51546 17.6444 4.73403 14.4501C5.9526 11.2558 8.11266 8.50703 10.9282 6.56767C13.7437 4.62831 17.0819 3.58988 20.5007 3.58988C23.9195 3.58988 27.2577 4.62831 30.0732 6.56767C32.8888 8.50703 35.0488 11.2558 36.2674 14.4501C37.486 17.6444 37.7056 21.1335 36.8971 24.4553C36.0887 27.7772 34.2889 30.7751 31.7388 33.0522Z" fill="#292929"/>
<path d="M12.0625 35.0927V33.1562C12.0636 32.0377 12.5085 30.9653 13.2994 30.1744C14.0903 29.3834 15.1627 28.9386 16.2813 28.9375H24.7188C25.8373 28.9386 26.9097 29.3834 27.7006 30.1744C28.4916 30.9653 28.9364 32.0377 28.9375 33.1562V35.0927C26.377 36.5878 23.4651 37.3757 20.5 37.3757C17.5349 37.3757 14.6231 36.5878 12.0625 35.0927Z" fill="#FFFFFC"/>
<path d="M20.5 20.5C19.6656 20.5 18.85 20.2526 18.1562 19.789C17.4624 19.3255 16.9217 18.6666 16.6024 17.8957C16.2831 17.1248 16.1995 16.2766 16.3623 15.4582C16.5251 14.6399 16.9269 13.8881 17.5169 13.2981C18.1069 12.7081 18.8586 12.3063 19.677 12.1436C20.4953 11.9808 21.3436 12.0643 22.1145 12.3836C22.8853 12.7029 23.5442 13.2437 24.0078 13.9374C24.4713 14.6312 24.7188 15.4469 24.7188 16.2812C24.7176 17.3998 24.2728 18.4722 23.4819 19.2631C22.691 20.0541 21.6185 20.4989 20.5 20.5Z" fill="#FFFFFC"/>
<path fill-rule="evenodd" clip-rule="evenodd" d="M31.7388 33.0522C31.7107 31.2077 30.9592 29.448 29.6461 28.1522C28.333 26.8565 26.5635 26.1285 24.7188 26.125H16.2813C14.4365 26.1285 12.667 26.8565 11.3539 28.1522C10.0408 29.448 9.28928 31.2077 9.26126 33.0522C6.71111 30.7751 4.91275 27.7772 4.10431 24.4553C3.29586 21.1335 3.51546 17.6444 4.73403 14.4501C5.9526 11.2558 8.11266 8.50703 10.9282 6.56767C13.7437 4.62831 17.0819 3.58988 20.5007 3.58988C23.9195 3.58988 27.2577 4.62831 30.0732 6.56767C32.8888 8.50703 35.0488 11.2558 36.2674 14.4501C37.486 17.6444 37.7056 21.1335 36.8971 24.4553C36.0887 27.7772 34.2889 30.7751 31.7388 33.0522ZM16.5937 10.435C17.7499 9.66238 19.1094 9.25 20.5 9.25C22.3648 9.25 24.1532 9.99079 25.4719 11.3094C26.7905 12.628 27.5313 14.4164 27.5313 16.2812C27.5313 17.6719 27.1189 19.0313 26.3463 20.1876C25.5737 21.3439 24.4755 22.2451 23.1908 22.7773C21.906 23.3095 20.4922 23.4487 19.1283 23.1774C17.7644 22.9061 16.5115 22.2364 15.5282 21.2531C14.5448 20.2698 13.8752 19.0169 13.6039 17.653C13.3326 16.2891 13.4718 14.8753 14.004 13.5905C14.5362 12.3057 15.4374 11.2076 16.5937 10.435Z" fill="#FFFFFC"/>
</g>
<defs>
<clipPath id="clip0_1114_1066">
<rect width="41" height="41" rx="20.5" fill="white"/>
</clipPath>
</defs>
</svg>
