<svg width="42" height="42" viewBox="0 0 42 42" fill="none" xmlns="http://www.w3.org/2000/svg">
<path d="M23.0122 5.50025C22.7418 5.51073 22.4838 5.61595 22.2832 5.7975L12.5457 13.895C12.3867 14.0529 12.194 14.1727 11.9821 14.2455C11.7702 14.3183 11.5445 14.3421 11.3221 14.3152H5.04778C4.84415 14.3139 4.64227 14.353 4.45388 14.4303C4.26548 14.5076 4.09432 14.6215 3.95032 14.7655C3.80633 14.9095 3.69237 15.0807 3.61508 15.2691C3.53778 15.4575 3.49867 15.6594 3.50003 15.863V25.8901C3.49901 26.0935 3.53837 26.2951 3.61582 26.4832C3.69327 26.6713 3.80728 26.8421 3.95124 26.9859C4.0952 27.1296 4.26625 27.2433 4.45448 27.3204C4.6427 27.3976 4.84437 27.4366 5.04778 27.4352H11.3157C11.5381 27.4084 11.7638 27.4322 11.9757 27.505C12.1876 27.5778 12.3803 27.6976 12.5393 27.8555L22.2768 35.953C22.9443 36.5078 23.6618 36.24 23.6618 35.5827V6.16906C23.6668 6.08155 23.6536 5.99396 23.6229 5.91183C23.5923 5.8297 23.545 5.75483 23.4839 5.69195C23.4228 5.62908 23.3494 5.57957 23.2682 5.54657C23.187 5.51357 23.0998 5.4978 23.0122 5.50025ZM35.5313 8.44712L33.2366 10.7444C35.1741 13.7752 36.2037 17.2973 36.2037 20.8945C36.2037 24.4917 35.1741 28.0137 33.2366 31.0445L35.5236 33.32C38.0309 29.6577 39.3733 25.3232 39.3746 20.8848C39.376 16.4463 38.0364 12.111 35.5313 8.44712ZM29.9796 13.986L27.7221 16.2627C28.7244 17.6006 29.2661 19.2273 29.2661 20.8989C29.2661 22.5706 28.7244 24.1973 27.7221 25.5352L29.9719 27.785C31.5548 25.8348 32.4198 23.4001 32.4221 20.8884C32.4245 18.3767 31.564 15.9404 29.9848 13.9872L29.9796 13.986Z" fill="black"/>
</svg>
