<svg width="42" height="42" viewBox="0 0 42 42" fill="none" xmlns="http://www.w3.org/2000/svg">
<path d="M10.5 37.5C9.675 37.5 8.9685 37.1413 8.3805 36.4238C7.7935 35.7052 7.5 34.8417 7.5 33.8333V8.16667C7.5 7.15833 7.7935 6.29483 8.3805 5.57617C8.9685 4.85872 9.675 4.5 10.5 4.5H27L34.5 13.6667V33.8333C34.5 34.8417 34.2065 35.7052 33.6195 36.4238C33.0315 37.1413 32.325 37.5 31.5 37.5H10.5ZM10.5 33.8333H31.5V15.5H25.5V8.16667H10.5V33.8333Z" fill="black"/>
<path d="M12.9 22.1786H28.02V24.5357H12.9V22.1786ZM12.9 26.8929H24.66V29.25H12.9V26.8929Z" fill="black"/>
<path d="M24.66 17.4643H12.9V19.8214H24.66V17.4643Z" fill="black"/>
</svg>
